<?xml version="1.0" encoding="UTF-8" standalone="no"?> <!-- Created with Vectornator Pro for iOS (http://vectornator.io/) --><!DOCTYPE svg PUBLIC "-//W3C//DTD SVG 1.1//EN" "http://www.w3.org/Graphics/SVG/1.1/DTD/svg11.dtd">
<svg height="100%" style="fill-rule:evenodd;clip-rule:evenodd;stroke-linecap:round;stroke-linejoin:round;" xmlns:xlink="http://www.w3.org/1999/xlink" xmlns="http://www.w3.org/2000/svg" xml:space="preserve" width="100%" xmlns:vectornator="http://vectornator.io" version="1.1" viewBox="0 0 890 200">
<metadata>
<vectornator:setting key="DisplayWhiteBackground" value="0"/>
<vectornator:setting key="RulersVisible" value="1"/>
<vectornator:setting key="SnapToEdges" value="0"/>
<vectornator:setting key="Units" value="Pixels"/>
<vectornator:setting key="DynamicGuides" value="1"/>
<vectornator:setting key="SnapToPoints" value="0"/>
<vectornator:setting key="SnapToGrid" value="0"/>
<vectornator:setting key="ShowGrid" value="0"/>
<vectornator:setting key="GridSpacing" value="36"/>
</metadata>
<defs/>
<g id="图层 1" vectornator:layerName="图层 1">
<g opacity="1">
<path d="M118.889+120.695C118.889+122.015+118.174+123.61+116.744+125.48C114.984+127.79+112.839+129.605+110.309+130.925C109.429+131.695+108.494+132.135+107.504+132.245C105.524+133.565+103.599+134.28+101.729+134.39C100.959+135.16+99.6386+135.875+97.7686+136.535L94.7986+136.37L91.8286+138.845L88.6936+138.185L87.7036+138.35L85.2286+138.68C83.5786+138.9+82.2036+139.01+81.1036+139.01C80.8836+139.01+80.4986+138.955+79.9486+138.845C79.3986+138.845+78.9586+138.845+78.6286+138.845L76.3186+139.67L73.0186+140L69.2236+139.835L67.4086+140.66L67.9036+141.155C65.3736+141.155+63.3936+141.375+61.9636+141.815L61.1386+141.65L54.3736+141.155L44.8036+140.825L41.6686+140.33C40.6786+140.77+39.5236+140.99+38.2036+140.99C36.6636+140.99+35.0686+140.495+33.4186+139.505L30.2836+140.66L28.6336+139.175C24.0136+139.065+21.3186+138.625+20.5486+137.855L19.8886+137.525C20.2186+137.525+19.2836+137.635+17.0836+137.855L10.6486+133.565L7.67862+132.905C5.80862+132.025+4.21362+130.485+2.89362+128.285C1.79362+126.415+1.24362+124.6+1.24362+122.84C1.24362+121.63+1.79362+119.485+2.89362+116.405L6.19362+112.775L10.1536+112.94C11.0336+111.73+12.2986+111.125+13.9486+111.125C17.4686+111.125+19.2286+113.93+19.2286+119.54C16.9186+120.09+15.5436+120.53+15.1036+120.86C14.5536+121.52+13.7286+122.235+12.6286+123.005L12.6286+123.5L14.1136+124.325L16.0936+126.47L22.5286+126.14L27.9736+127.79L36.5536+127.625L39.6886+129.605L41.1736+128.78C41.8336+128.78+42.6586+128.945+43.6486+129.275L47.9386+129.77L48.2686+130.595L50.9086+130.595C53.4386+129.825+54.8686+129.44+55.1986+129.44C55.7486+129.44+56.4086+129.605+57.1786+129.935C58.1686+129.715+59.4336+129.605+60.9736+129.605C62.0736+129.605+63.0636+129.715+63.9436+129.935C64.7136+129.495+65.5936+129.275+66.5836+129.275C67.7936+129.275+68.8386+129.495+69.7186+129.935L73.3486+128.945L75.1636+126.965L81.4336+127.625C84.6236+126.635+87.1536+126.14+89.0236+126.14L89.8486+126.14C90.6186+125.59+91.2786+125.315+91.8286+125.315C92.1586+125.315+92.5436+125.425+92.9836+125.645C92.9836+125.645+93.5336+125.425+94.6336+124.985L94.6336+123.665L98.0986+123.665C98.8686+122.675+100.244+122.125+102.224+122.015C103.764+120.585+105.029+119.815+106.019+119.705C106.019+119.705+106.459+119.045+107.339+117.725C107.339+116.735+103.819+114.59+96.7786+111.29L95.4586+110.3C93.1486+110.08+91.3336+109.695+90.0136+109.145C89.2436+109.145+88.5286+109.09+87.8686+108.98L87.5386+108.98C86.9886+108.98+84.8436+108.32+81.1036+107C79.8936+106.12+78.6286+105.68+77.3086+105.68C76.8686+105.68+76.2086+105.79+75.3286+106.01L72.0286+106.01L71.5336+105.515C69.7736+105.185+68.3986+104.69+67.4086+104.03L65.4286+104.69L60.3136+102.215L57.0136+102.215L54.8686+100.895L51.5686+100.895L51.0736+100.07L48.4336+100.07L46.1236+97.43L44.9686+97.43C41.5586+97.43+38.9186+96.77+37.0486+95.45L36.7186+95.12C34.2986+94.35+32.5386+93.14+31.4386+91.49L28.6336+88.85L26.8186+84.56L24.8386+81.92L25.6636+75.155L29.6236+70.535C30.2836+70.425+30.7786+69.71+31.1086+68.39C31.4386+68.28+31.9886+68.005+32.7586+67.565L41.1736+62.945C42.2736+63.165+43.0436+63.275+43.4836+63.275C45.0236+63.275+46.6186+62.725+48.2686+61.625L49.2586+61.625L49.2586+61.955L50.9086+60.47L51.7336+60.47C55.2536+59.15+58.1686+58.49+60.4786+58.49L61.3036+58.49L62.7886+58.655L65.2636+57.17C65.9236+57.06+66.8036+57.005+67.9036+57.005L68.8936+57.005C69.6636+57.005+71.0111+56.895+72.9361+56.675C74.8611+56.455+76.3736+56.29+77.4736+56.18L80.4436+56.015L84.8986+53.705C85.2286+53.925+85.9436+54.75+87.0436+56.18L90.6736+56.18C91.3336+56.18+92.5436+56.51+94.3036+57.17L95.4586+57.17C98.0986+57.17+100.299+57.72+102.059+58.82C107.889+60.25+110.804+63.165+110.804+67.565C110.804+71.305+107.779+73.56+101.729+74.33L100.409+72.35C100.079+72.24+99.5011+72.02+98.6761+71.69C97.8511+71.36+97.2186+71.14+96.7786+71.03L93.1486+71.03L91.4986+69.215L88.8586+69.545L87.3736+71.195L83.4136+68.39L79.1236+69.05L74.0086+67.895C70.8186+68.115+68.1236+68.775+65.9236+69.875L65.5936+70.04C65.2636+70.26+64.9061+70.4525+64.5211+70.6175C64.1361+70.7825+63.8886+70.865+63.7786+70.865L61.4686+69.875L56.8486+72.02L48.2686+74.33L46.2886+73.835L42.6586+76.145L41.0086+76.145L40.0186+77.63L36.5536+79.94L36.8836+80.93C36.8836+80.93+37.4886+81.535+38.6986+82.745L40.3486+83.24L42.9886+84.89L48.1036+86.705L50.5786+86.87L55.0336+89.51L56.3536+89.015C59.5436+89.675+61.6886+90.555+62.7886+91.655L63.2836+92.15L63.6136+92.15C63.6136+92.15+64.7136+92.81+66.9136+94.13L68.0686+92.975L72.0286+93.14L72.6886+93.47L74.9986+93.47L77.3086+95.285L78.4636+95.285C80.3336+95.285+81.9836+95.56+83.4136+96.11C83.5236+96.11+84.0736+96.055+85.0636+95.945C87.0436+95.945+89.2436+96.825+91.6636+98.585L93.6436+98.09L95.1286+98.75L97.9336+98.75L102.719+102.05L107.669+102.545L109.649+105.185C113.389+107.495+115.836+109.502+116.991+111.207C118.146+112.913+118.724+115.36+118.724+118.55C118.724+118.77+118.779+119.1+118.889+119.54C118.889+119.98+118.889+120.365+118.889+120.695Z" opacity="1" fill="#e63f21"/>
<path d="M161.624+28.46C161.624+29.78+160.744+30.99+158.984+32.09L158.984+32.42C156.894+34.95+155.079+36.38+153.539+36.71L151.064+39.68L149.414+41.825L145.619+42.815L143.969+45.125L141.329+46.445L137.039+50.24L134.399+47.765L134.894+43.64L136.709+40.67C136.819+39.13+137.699+37.81+139.349+36.71L139.349+36.05L140.339+35.39L140.504+32.915L143.144+32.255L143.144+30.77L145.124+30.44C145.564+28.24+146.499+26.645+147.929+25.655L148.424+25.325L149.414+24.335L150.734+20.375C157.994+22.135+161.624+24.83+161.624+28.46ZM178.454+115.91C178.454+118.44+178.014+120.035+177.134+120.695L176.309+121.355L175.484+123.665L172.844+124.49C172.074+126.25+170.919+127.625+169.379+128.615L167.894+129.11L165.749+131.42L163.769+131.915C162.999+133.895+161.404+134.94+158.984+135.05C158.764+135.38+158.269+136.04+157.499+137.03C155.849+138.13+154.144+138.79+152.384+139.01L151.559+139.175L150.404+140.66L147.104+140.66L144.464+142.64L137.699+137.69L134.564+131.255L134.399+123.17L133.739+121.19L135.719+106.67L136.379+106.01C136.049+104.36+135.884+102.765+135.884+101.225C135.884+100.235+136.214+98.2+136.874+95.12L137.699+91.325C137.479+90.665+137.039+89.95+136.379+89.18L137.369+86.045L137.699+82.25L138.029+81.755C137.589+80.765+137.314+79.665+137.204+78.455C137.314+78.235+137.424+77.9325+137.534+77.5475C137.644+77.1625+137.699+76.86+137.699+76.64C137.369+75.65+137.204+74.715+137.204+73.835C137.204+71.195+138.689+69.985+141.659+70.205L143.639+70.37C144.959+69.71+145.784+69.38+146.114+69.38C148.314+69.38+149.799+70.59+150.569+73.01L150.569+73.67C151.009+74.99+151.229+76.255+151.229+77.465C151.229+78.455+151.119+79.17+150.899+79.61L149.744+87.86L150.899+90.17C150.899+92.15+150.239+93.91+148.919+95.45L149.579+97.43L147.434+103.7C147.214+106.45+146.939+108.54+146.609+109.97L146.609+114.095L145.619+116.405L145.784+118.055L145.454+121.85L145.784+124.82L148.259+126.8L150.239+126.47L150.569+125.975L151.889+126.14L154.034+125.48L155.849+123.665L156.509+122.675L157.664+122.51L157.994+121.685L158.489+121.025L159.479+121.685L161.129+120.035L162.119+120.2L162.449+119.045L162.779+119.045L163.274+117.725L164.759+117.065L167.894+115.58C170.424+113.82+172.899+112.94+175.319+112.94L175.979+112.94C177.189+113.71+178.014+114.7+178.454+115.91Z" opacity="1" fill="#e63f21"/>
<path d="M326.954+120.53C326.404+122.07+325.689+123.225+324.809+123.995C324.479+125.205+323.984+126.085+323.324+126.635C322.774+127.735+322.114+128.505+321.344+128.945L320.684+129.935C320.244+130.595+319.639+130.925+318.869+130.925L318.044+132.575L316.889+132.575L316.064+134.06L314.744+134.555L313.754+135.71L312.929+136.37C311.279+136.37+309.904+136.865+308.804+137.855C307.374+138.405+305.889+138.68+304.349+138.68C302.809+138.68+301.269+138.295+299.729+137.525C297.969+137.415+297.089+137.14+297.089+136.7L294.779+136.37L294.284+135.875L293.294+133.895L291.479+132.41C290.269+130.98+289.609+129.66+289.499+128.45C288.729+127.35+287.959+125.26+287.189+122.18L285.539+119.54L285.539+118.055L284.384+113.105L284.549+111.125L283.559+106.01L284.054+101.885L283.229+100.73L281.579+104.855C279.489+107.165+278.251+108.567+277.866+109.062C277.481+109.558+277.014+109.805+276.464+109.805C276.354+109.805+276.134+109.75+275.804+109.64L274.814+111.455C274.704+111.565+274.649+111.785+274.649+112.115C274.649+112.775+275.034+113.16+275.804+113.27C275.584+113.49+275.034+114.26+274.154+115.58C273.714+116.46+273.329+117.065+272.999+117.395L272.504+116.57L272.174+118.88C270.744+119.98+269.754+121.63+269.204+123.83C268.104+125.26+266.399+127.295+264.089+129.935L261.944+132.245C261.394+132.245+261.119+132.355+261.119+132.575L261.119+132.905C260.459+134.445+259.304+135.655+257.654+136.535L255.674+139.01L254.519+139.01L250.559+140.495C247.259+140.275+245.224+138.845+244.454+136.205L244.289+134.39L243.299+132.245L243.299+130.43L241.979+125.645L241.979+124.16L240.989+122.51L241.649+117.395C241.539+116.845+241.484+116.075+241.484+115.085C241.484+114.205+241.539+113.6+241.649+113.27L241.484+112.28L241.484+111.62L240.659+109.805L241.979+106.67C241.759+105.79+241.429+104.36+240.989+102.38L241.484+100.895L241.979+96.11L240.659+92.645L240.989+89.84L240.494+88.355C240.384+88.025+239.999+86.98+239.339+85.22L238.184+85.88L236.039+88.52L234.059+90.335L230.099+95.285L229.769+97.1L226.964+100.07L225.809+102.38L224.654+103.7C224.324+106.12+223.114+107.825+221.024+108.815L220.859+111.125C220.199+111.785+219.511+112.665+218.796+113.765C218.081+114.865+217.586+115.497+217.311+115.662C217.036+115.828+216.569+116.185+215.909+116.735L213.929+119.54C213.929+121.41+213.214+122.73+211.784+123.5L211.784+124.49C211.124+125.37+210.244+126.25+209.144+127.13L208.979+126.8L208.484+129.11C207.604+129.11+206.779+130.155+206.009+132.245L205.514+132.905C205.404+134.665+204.469+135.985+202.709+136.865L200.399+139.01C198.639+139.89+197.484+140.33+196.934+140.33C194.074+140.33+192.204+137.965+191.324+133.235L190.664+129.605C190.554+129.385+190.499+129.055+190.499+128.615C190.499+127.845+190.664+127.075+190.994+126.305L190.169+123.17L190.499+120.53L190.169+117.89C190.389+115.58+190.774+114.15+191.324+113.6C190.994+111.29+190.829+109.97+190.829+109.64L190.829+106.67C191.269+105.9+191.819+104.91+192.479+103.7L191.489+102.71C191.269+101.83+191.159+101.335+191.159+101.225C191.159+100.455+191.819+99.135+193.139+97.265L191.984+94.13L192.644+92.15L191.654+87.365L191.984+85.055L191.159+81.425L191.324+78.95L189.839+75.98C192.039+71.69+194.404+69.545+196.934+69.545C198.254+69.545+199.519+70.095+200.729+71.195L201.059+72.845C202.929+73.835+203.864+75.32+203.864+77.3C203.864+76.97+203.699+78.125+203.369+80.765L202.709+80.6L204.194+83.405L203.204+84.725L203.039+85.385L204.029+92.975L203.699+99.41L203.204+100.565L203.864+103.205C204.194+103.645+204.359+104.195+204.359+104.855C204.359+105.735+203.919+106.615+203.039+107.495C203.039+109.035+202.764+110.3+202.214+111.29L202.709+116.24L202.709+118.22L202.874+117.89L203.864+116.405L206.174+112.28L206.669+112.28C207.329+112.28+208.044+111.235+208.814+109.145L209.969+106.01C210.189+105.35+211.014+104.305+212.444+102.875L213.104+99.905L215.084+96.935L215.744+94.625C216.294+94.295+216.844+93.91+217.394+93.47L217.559+92.975C217.889+92.535+219.099+91.38+221.189+89.51L222.179+89.015L222.509+87.365L223.334+86.87C223.884+84.56+225.259+83.02+227.459+82.25L226.799+81.755L227.459+81.425C227.349+81.315+227.294+81.15+227.294+80.93C227.294+80.71+227.404+80.38+227.624+79.94L230.264+78.785L230.759+76.145L232.574+76.145C232.574+76.035+232.684+75.65+232.904+74.99L236.204+72.35C237.744+71.91+238.789+71.69+239.339+71.69C240.659+71.69+242.474+72.075+244.784+72.845L246.434+75.155L247.094+75.485L247.919+77.465L250.229+80.6L250.229+82.745L251.714+84.395L251.714+86.87C252.924+89.51+253.529+91.765+253.529+93.635L253.034+95.615L254.024+98.42L252.209+100.235L252.869+103.865L252.704+104.855L252.539+105.68C252.319+106.78+252.209+107.605+252.209+108.155C252.209+108.705+252.484+109.805+253.034+111.455L252.539+113.27L253.034+115.58L252.539+116.075C252.759+117.615+253.089+120.2+253.529+123.83L253.364+124.49L258.644+118.715L260.294+115.58C260.734+114.92+261.449+113.875+262.439+112.445L262.439+112.115C262.879+110.355+263.594+109.145+264.584+108.485C264.584+107.825+265.134+107+266.234+106.01L267.554+105.185C267.994+103.315+269.149+101.775+271.019+100.565L271.844+98.255L273.329+96.275L274.979+94.625C275.969+93.855+276.739+92.645+277.289+90.995L278.609+89.015L279.269+86.54L281.084+85.55L282.899+83.24L284.714+79.28C284.274+79.28+284.054+79.17+284.054+78.95C284.054+78.95+284.164+78.73+284.384+78.29L285.539+77.3L286.859+74.66C288.729+74+289.774+73.67+289.994+73.67C289.994+73.67+290.214+73.78+290.654+74L293.624+74.165L296.264+75.32L298.574+77.96L299.069+80.27L298.904+82.085L298.079+82.745L296.264+86.21L295.604+90.005C296.154+90.555+296.429+91.545+296.429+92.975C295.989+93.525+295.769+94.24+295.769+95.12L295.109+96.44C295.329+96.99+295.439+97.87+295.439+99.08C295.439+100.07+295.384+100.785+295.274+101.225L294.614+102.05L295.274+103.205L294.119+104.69C294.779+104.69+295.109+105.405+295.109+106.835C295.329+107.495+295.439+107.935+295.439+108.155C295.439+108.485+295.329+108.87+295.109+109.31C295.329+110.41+295.439+111.455+295.439+112.445L295.439+112.775C295.439+112.995+296.154+115.25+297.584+119.54L297.914+121.19L299.729+123.17L300.719+125.48L301.709+125.975L302.369+126.965L303.194+127.13L304.679+127.46L305.504+127.295L305.999+127.295C307.099+127.295+308.419+126.855+309.959+125.975C310.399+124.875+311.554+123.72+313.424+122.51C313.534+121.96+314.194+120.915+315.404+119.375L318.209+117.395L319.199+115.415C320.079+114.865+321.014+114.59+322.004+114.59C323.214+114.59+324.534+114.92+325.964+115.58C326.624+116.68+326.954+118.33+326.954+120.53Z" opacity="1" fill="#e63f21"/>
<path d="M400.049+115.58L398.069+120.53L399.389+123.83L398.729+124.82L398.069+127.46L396.749+129.77L396.089+130.1L395.759+133.235L392.789+133.565C391.249+134.995+389.654+136.15+388.004+137.03L387.014+136.865L384.539+137.69L383.054+137.855L379.919+139.01L376.289+137.36L375.794+137.03L372.989+137.195L373.649+137.525L369.029+136.865L364.904+137.855L363.254+136.37L359.789+136.7L358.469+135.71C358.359+135.71+357.919+135.765+357.149+135.875L357.149+136.865C357.149+137.855+356.984+138.845+356.654+139.835L357.149+142.97L355.829+144.62C356.049+147.04+356.159+148.855+356.159+150.065L355.664+154.19L356.324+160.46L355.004+162.11L355.664+164.585L355.169+166.235L356.159+166.73L356.159+169.205C356.379+169.865+356.489+170.36+356.489+170.69C356.489+171.68+355.884+172.505+354.674+173.165L355.334+175.475L354.509+176.795L354.179+183.395C353.849+191.095+352.144+194.945+349.064+194.945C348.404+194.945+346.479+194.505+343.289+193.625L343.784+188.675L342.794+181.415L344.444+178.445L344.609+174.815L343.949+169.865L345.269+167.72L343.784+163.925L344.939+161.945L343.949+158.645L345.269+155.675C345.049+155.015+344.636+154.41+344.031+153.86C343.426+153.31+343.124+152.925+343.124+152.705C343.124+152.375+343.509+152.045+344.279+151.715C344.169+151.385+344.114+150.835+344.114+150.065C344.114+148.635+344.444+146.765+345.104+144.455L344.114+142.805L344.609+140.66L343.454+139.175L344.939+137.36L344.279+132.575L345.269+125.81L344.114+123.665L345.929+120.53L343.949+118.715L345.104+115.58L343.949+114.755L344.114+111.95L345.104+108.485L345.104+107.825L345.269+107.165L345.269+105.35L345.434+104.69L344.609+102.05L345.434+99.245L344.609+97.1L345.269+94.625L344.609+93.965L345.104+90.665L344.609+88.85L344.939+87.2L344.444+86.045L338.504+88.685L338.504+87.695L337.349+87.86L335.534+89.51L334.049+89.51L332.069+92.15L330.419+91.49L329.594+93.14C324.204+89.95+321.509+87.42+321.509+85.55C321.509+84.23+322.004+83.13+322.994+82.25L322.829+79.775C325.909+78.015+328.824+77.08+331.574+76.97L332.729+75.815L338.009+73.67L339.164+72.515L343.784+72.845L344.609+72.515L346.094+66.74L350.054+67.565L352.694+71.855L354.179+70.37L357.149+72.515C358.579+72.515+359.954+72.79+361.274+73.34L362.099+74.825L363.254+74.33L364.574+75.32C365.344+75.32+365.949+75.375+366.389+75.485L366.224+76.475L369.854+75.32L371.669+77.3L374.804+78.29L376.949+80.93L380.909+83.405L381.074+83.735L384.209+84.725L384.209+85.715C385.089+86.375+385.749+87.255+386.189+88.355L387.509+89.18L388.499+90.995L390.479+90.995L390.479+94.295L391.634+95.45L391.964+96.605L393.614+96.935C393.834+99.465+394.549+101.61+395.759+103.37L395.759+104.525L397.409+106.175L397.079+108.815L398.399+111.785L398.894+115.25L400.049+115.58ZM387.674+118.055L387.509+117.23L387.674+116.57L386.684+113.6L387.344+112.115L386.684+110.795L386.519+109.145L385.199+106.505L384.539+104.69L382.064+100.4L380.084+98.75L378.929+95.945L377.444+95.285L374.804+91.82L372.164+92.15L370.184+89.51L368.534+89.84L367.379+87.695L366.719+87.53L364.409+87.53L362.759+88.355L361.439+87.035L359.789+87.365L359.129+86.21L356.159+85.715L356.324+87.695L355.994+90.83L356.654+92.645L358.964+94.79L357.149+98.75L357.314+101.225L356.489+106.175C356.819+108.265+357.479+110.025+358.469+111.455L357.809+113.27C357.919+113.38+357.974+113.49+357.974+113.6C357.974+113.93+357.534+114.425+356.654+115.085L357.809+116.57L356.984+118.55L356.654+120.695L357.149+123.005L356.984+125.15L360.449+125.15C360.889+124.93+361.494+124.82+362.264+124.82C363.254+124.82+364.134+125.15+364.904+125.81C365.014+125.81+365.234+125.755+365.564+125.645C365.784+125.645+365.949+125.645+366.059+125.645C366.389+125.645+366.994+125.755+367.874+125.975C368.534+125.645+369.139+125.48+369.689+125.48C370.569+125.48+371.394+125.7+372.164+126.14L373.649+126.14L374.969+126.47L378.269+125.48L380.909+127.13C381.899+127.46+382.284+127.625+382.064+127.625L385.199+124.49L385.529+122.18L386.354+121.85L385.859+120.53L387.014+119.21L387.674+118.055Z" opacity="1" fill="#e63f21"/>
<path d="M459.284+122.015C459.284+123.225+458.844+124.215+457.964+124.985C457.084+126.305+455.654+127.68+453.674+129.11L452.024+130.265L450.539+132.245L449.054+132.905L446.744+134.39L445.094+134.555L444.434+135.215C442.234+135.875+440.529+136.975+439.319+138.515C438.549+139.065+437.834+139.34+437.174+139.34C436.734+139.34+436.349+139.285+436.019+139.175C434.149+140.275+431.729+140.825+428.759+140.825C426.229+140.825+424.579+140.605+423.809+140.165L420.839+138.515L419.849+136.865L419.849+136.37C419.849+134.94+419.244+133.785+418.034+132.905L417.374+129.605L416.054+128.12L415.229+122.015L415.064+118.385L415.229+115.745L415.559+114.755C415.229+114.095+415.064+113.38+415.064+112.61C415.614+107.99+415.889+105.075+415.889+103.865L414.404+100.895L415.889+98.42L416.384+94.295L416.054+91.49L417.044+89.015L416.054+85.715L417.539+83.405L417.704+81.92L417.704+76.145L418.199+74.99L418.034+68.06L418.529+60.965L417.869+59.645L417.704+54.695L418.199+50.24L417.704+48.59L418.694+38.69C423.314+37.59+425.349+37.04+424.799+37.04C426.559+37.04+427.989+37.975+429.089+39.845L429.419+41.165L431.894+43.64L430.574+47.105L430.904+47.765C430.684+49.855+430.409+51.23+430.079+51.89L430.409+55.355L431.234+58.49L430.079+61.955C430.079+63.825+429.804+65.53+429.254+67.07C429.254+67.62+429.144+68.5+428.924+69.71L428.759+70.7L430.244+72.515L429.584+74.33C429.804+75.21+429.914+75.815+429.914+76.145C429.914+76.805+429.694+77.685+429.254+78.785L429.584+80.27L428.594+85.55L428.594+89.015L427.439+92.48L428.099+95.615L427.439+102.875L427.934+103.7L427.109+107.495L426.779+112.115C426.559+112.775+426.449+113.16+426.449+113.27C426.449+115.14+426.394+116.68+426.284+117.89L427.109+120.2L426.779+122.675L427.769+124.82L427.604+125.645C428.264+126.195+428.869+127.075+429.419+128.285L430.904+128.285L433.049+128.945L434.039+127.625L435.524+127.46C436.184+127.24+436.679+127.13+437.009+127.13L437.504+127.13C438.604+126.91+439.484+126.36+440.144+125.48L441.134+124.985C441.904+123.775+443.169+122.95+444.929+122.51C445.479+122.07+446.524+121.19+448.064+119.87C448.064+118.33+448.999+117.175+450.869+116.405C452.519+116.405+453.619+116.13+454.169+115.58C456.369+115.91+457.771+116.487+458.376+117.312C458.981+118.138+459.284+119.705+459.284+122.015Z" opacity="1" fill="#e63f21"/>
<path d="M519.344+126.47C519.344+127.79+518.354+129.44+516.374+131.42C515.824+133.18+514.999+134.61+513.899+135.71L512.909+135.875L511.094+139.01L508.124+139.505L504.989+141.485L503.339+144.455L501.524+144.125C500.314+144.675+499.324+145.005+498.554+145.115L497.564+146.6C497.234+146.49+496.739+146.435+496.079+146.435C494.649+146.435+493.274+147.425+491.954+149.405L489.644+147.425C489.204+147.535+488.544+147.59+487.664+147.59C486.234+147.59+485.024+147.37+484.034+146.93L481.229+146.93L479.909+146.105C475.729+145.445+473.089+143.85+471.989+141.32L471.989+140.825L470.009+139.835L469.019+137.03L467.039+135.71L467.039+133.235L465.059+125.975L465.389+120.035L466.049+117.395L466.049+113.93L466.874+111.29L466.709+110.135L467.864+108.155L467.534+108.485C467.534+107.495+467.809+106.45+468.359+105.35L468.359+104.525L467.864+100.565C467.864+98.695+468.689+97.045+470.339+95.615C470.449+95.395+470.504+95.065+470.504+94.625C470.504+94.185+470.311+93.2775+469.926+91.9025C469.541+90.5275+469.349+89.565+469.349+89.015C469.349+87.695+469.679+86.32+470.339+84.89C471.219+86.21+472.484+86.87+474.134+86.87L474.629+86.87C474.849+86.43+475.344+85.935+476.114+85.385C476.994+82.635+478.204+80.325+479.744+78.455L480.404+77.795C480.404+77.355+480.734+76.09+481.394+74L482.714+74L483.044+73.175L484.364+72.845C484.914+71.965+485.271+71.4425+485.436+71.2775C485.601+71.1125+486.784+70.425+488.984+69.215C489.424+68.445+490.084+67.73+490.964+67.07C491.404+66.85+491.954+66.63+492.614+66.41L493.274+65.42C496.244+64.43+498.114+63.935+498.884+63.935C499.764+63.935+500.589+64.155+501.359+64.595L502.184+64.43L503.339+65.09C504.659+66.08+505.979+66.905+507.299+67.565L510.104+69.71L510.104+70.37C512.634+72.35+513.899+75.155+513.899+78.785L513.404+80.435L513.899+85.88L512.414+86.87L510.764+91.16L507.629+94.625L507.464+97.265C503.944+99.795+500.699+101.83+497.729+103.37C496.739+104.91+495.199+105.68+493.109+105.68L492.614+105.68L489.479+107.66L486.839+107.66L482.879+109.31L479.909+107.825L479.579+107.825C479.359+108.705+479.139+110.025+478.919+111.785L477.599+112.775L477.434+114.755L476.444+117.56C476.774+120.2+476.939+121.905+476.939+122.675L476.279+123.17C476.279+124.6+476.224+125.645+476.114+126.305C476.114+126.415+476.059+126.58+475.949+126.8C475.949+127.02+475.949+127.185+475.949+127.295C475.949+128.175+476.389+128.89+477.269+129.44C477.599+130.76+478.149+131.585+478.919+131.915L480.074+132.905L483.704+133.895L483.704+134.39L485.024+134.72L490.634+135.05L493.934+134.555L495.584+133.4L496.574+133.07L498.224+130.595L499.049+130.43L503.174+129.11C503.614+128.34+504.329+127.68+505.319+127.13L505.814+126.305C508.014+125.865+509.279+124.71+509.609+122.84C511.149+121.3+513.129+120.53+515.549+120.53L516.209+120.53C518.299+122.95+519.344+124.93+519.344+126.47ZM503.009+78.95C503.009+78.62+502.844+77.96+502.514+76.97L501.689+76.805L501.359+76.97C501.249+76.97+501.029+76.97+500.699+76.97C500.479+77.08+500.259+77.135+500.039+77.135C499.929+77.135+499.764+77.08+499.544+76.97C499.324+76.97+499.159+76.97+499.049+76.97L497.399+78.125L495.914+78.29L495.089+78.62L492.284+82.25L490.469+83.57L487.829+88.19L486.344+89.18C486.014+91.05+485.244+92.645+484.034+93.965L483.374+95.12C484.584+94.35+485.959+93.965+487.499+93.965L488.654+93.47L489.149+91.985L491.459+92.15L492.779+90.17L493.769+90.17L495.584+90.83L496.409+88.355L497.564+88.355L497.564+86.54L499.709+86.045L500.204+85.55L500.534+84.065L502.679+80.93C502.899+80.38+503.009+79.72+503.009+78.95Z" opacity="1" fill="#e63f21"/>
<path d="M658.769+59.81C658.769+61.9+657.174+63+653.984+63.11L651.014+64.43L648.044+63.77L643.754+66.08C641.334+64.87+639.574+64.265+638.474+64.265C638.364+64.265+637.896+64.3475+637.071+64.5125C636.246+64.6775+635.504+64.76+634.844+64.76C633.964+64.76+633.304+64.705+632.864+64.595L629.234+65.75L628.409+65.585L628.079+65.75L619.004+65.915L618.014+67.565L613.889+66.245L612.239+67.07L608.279+67.4L605.804+66.905C604.814+67.015+603.851+67.1525+602.916+67.3175C601.981+67.4825+601.459+67.565+601.349+67.565L599.204+67.895L598.214+68.555L599.204+71.525L600.524+74.99L599.864+77.63L601.514+78.95L600.194+80.93C600.414+81.81+600.524+82.525+600.524+83.075C600.524+84.065+600.249+85.275+599.699+86.705L599.204+92.15L601.844+92.315L607.124+90.995L609.434+92.315C609.764+92.315+610.204+92.315+610.754+92.315C611.194+92.425+611.469+92.48+611.579+92.48L612.074+92.48L613.064+91.49L618.179+90.665L621.809+91.985C623.569+91.545+624.834+91.27+625.604+91.16L631.049+91.16L634.184+90.5L635.999+91.49L638.474+91.16C639.354+91.05+640.014+90.995+640.454+90.995L650.024+89.84L651.179+90.335C651.509+90.225+651.894+90.17+652.334+90.17C653.104+90.17+654.039+90.39+655.139+90.83C656.569+92.81+657.284+94.57+657.284+96.11C657.284+96.66+657.229+97.1+657.119+97.43L653.984+97.925L651.179+99.41L648.704+99.41L647.384+100.565L642.764+100.235L638.639+101.39L633.854+102.215L632.864+102.05L632.534+102.38L626.264+101.72L624.119+102.545L621.149+102.215C619.499+102.985+617.464+103.37+615.044+103.37L613.559+103.37C613.009+103.48+611.854+103.81+610.094+104.36C607.784+103.04+606.629+102.38+606.629+102.38C606.629+102.38+606.299+102.655+605.639+103.205C604.979+103.755+604.209+104.14+603.329+104.36L600.194+104.03L598.214+104.03C597.994+105.13+597.664+108.43+597.224+113.93C597.664+115.25+597.884+116.405+597.884+117.395L596.234+121.52L597.224+123.5L595.904+126.14L596.399+128.615L595.574+130.1C594.144+137.58+593.154+142.365+592.604+144.455C591.724+147.755+590.734+149.68+589.634+150.23L586.004+148.415L581.549+148.415L582.704+143.3L582.704+140.99L583.694+140L584.024+137.855L584.189+137.03L583.859+136.865L583.859+134.885L582.374+133.235L582.704+132.245C582.704+129.935+583.144+127.9+584.024+126.14L583.364+125.48L583.694+123.5L583.199+121.19L584.189+118.55L583.859+112.61L585.014+106.835L584.189+104.855L584.189+104.03L581.549+105.02L577.754+103.04L576.104+103.37C575.004+103.59+574.344+103.7+574.124+103.7C571.044+103.7+569.504+101.885+569.504+98.255C569.504+93.635+571.814+91.325+576.434+91.325C578.744+91.325+580.394+91.38+581.384+91.49L586.004+91.985L585.674+90.665L585.839+85.385L584.849+85.055L585.509+74.99L583.859+70.535L583.694+69.05L582.539+68.39L577.259+71.36L574.619+67.73C572.639+66.85+571.649+65.145+571.649+62.615C572.309+61.625+572.639+60.855+572.639+60.305L572.639+56.51L577.259+56.84C579.569+55.19+581.659+54.365+583.529+54.365C583.419+54.365+585.014+54.585+588.314+55.025C590.294+54.805+593.924+54.53+599.204+54.2L605.144+55.025L609.599+54.86L610.259+54.365C611.029+53.925+611.854+53.705+612.734+53.705C613.504+53.705+614.109+53.815+614.549+54.035L615.209+54.2C616.199+54.09+617.684+53.8975+619.664+53.6225C621.644+53.3475+623.129+53.155+624.119+53.045L624.284+53.54L625.274+54.365L625.934+54.365C626.484+54.365+627.254+54.2825+628.244+54.1175C629.234+53.9525+629.949+53.87+630.389+53.87L630.884+53.87L635.339+54.53L640.124+55.025C641.774+54.695+643.314+54.53+644.744+54.53C645.844+54.53+646.889+54.695+647.879+55.025L650.684+55.025C651.674+54.695+652.774+54.53+653.984+54.53C657.174+54.53+658.769+56.29+658.769+59.81Z" opacity="1" fill="#e63f21"/>
<path d="M722.954+101.39L721.964+104.36C721.964+107.22+721.799+109.475+721.469+111.125L720.479+112.775L720.479+114.59L719.654+115.745L719.159+118.055L717.344+119.87L716.189+123.995L714.869+124.49L714.209+126.305L712.229+127.46L710.909+130.265L708.929+131.255L708.764+133.235L705.629+134.39C704.199+136.37+702.439+137.635+700.349+138.185L699.689+138.35C698.149+140.66+696.114+141.815+693.584+141.815C692.484+142.475+691.219+142.805+689.789+142.805L688.139+143.96L686.489+144.455L684.344+146.105L682.199+145.94L679.889+146.6L677.084+145.445L669.989+144.95L667.514+141.155L663.884+137.36L664.709+134.72L662.234+129.11L663.389+126.965L662.564+123.005L663.389+120.53C663.169+118.99+663.059+117.89+663.059+117.23C663.059+115.14+663.609+113.6+664.709+112.61C664.819+111.51+665.534+109.695+666.854+107.165L667.679+107.165L667.349+106.01L667.844+103.7L667.844+101.225C668.724+100.235+669.219+99.575+669.329+99.245L668.834+96.935L668.834+96.275C669.604+94.735+669.989+93.14+669.989+91.49L673.454+86.705C673.454+86.705+673.591+86.595+673.866+86.375C674.141+86.155+674.389+85.935+674.609+85.715L674.444+85.055L675.104+85.055L677.579+82.25L677.744+78.455L681.869+76.97C683.409+75.98+684.399+74.33+684.839+72.02L686.984+72.02C688.194+71.36+689.294+71.03+690.284+71.03C691.274+71.03+692.209+71.25+693.089+71.69L694.904+71.855L699.194+70.205L701.504+72.35L703.319+73.505L704.639+73.505L707.114+74.825L708.434+74.825C709.864+76.145+711.514+77.96+713.384+80.27L713.714+81.095L714.869+81.755L718.334+86.21L721.469+93.965L721.469+95.615L722.954+101.39ZM712.064+105.35L711.899+104.525C711.129+103.755+710.689+102.93+710.579+102.05L711.074+101.225L709.589+98.09L709.919+94.955L709.259+94.13C707.829+93.03+707.059+92.15+706.949+91.49C705.959+91.05+705.464+89.95+705.464+88.19L704.474+88.025L702.494+84.725L701.009+83.57L697.544+82.25L696.224+81.92C695.564+81.92+695.124+81.7+694.904+81.26L691.604+84.89L689.459+89.51L685.994+91.325L685.499+93.14L683.849+93.965L683.189+98.255L681.209+99.245C680.769+100.785+680.549+102.215+680.549+103.535L677.909+106.01L678.734+106.505C678.734+107.825+678.239+108.98+677.249+109.97C676.919+110.96+676.479+112.06+675.929+113.27L675.929+114.59L675.434+115.25L675.599+117.23L673.784+121.685L674.114+122.51L674.114+127.13L673.454+129.44L673.619+131.75L675.104+133.895L677.414+134.72L678.239+135.05L679.559+134.39L683.849+134.72L684.509+133.07L685.169+133.07C685.829+133.07+686.214+133.235+686.324+133.565L687.809+133.07L689.129+133.565L691.274+132.08L691.604+131.585L693.089+131.255C693.859+130.045+695.674+128.835+698.534+127.625L698.864+126.8L702.164+124.49L703.979+121.85L706.619+120.53L706.784+119.705L707.609+117.89L707.609+115.745L709.589+114.095L710.249+112.94L711.074+111.95C710.634+110.63+710.414+109.695+710.414+109.145C710.414+108.155+710.744+107.11+711.404+106.01L712.064+105.35Z" opacity="1" fill="#e63f21"/>
<path d="M793.409+101.39L792.419+104.36C792.419+107.22+792.254+109.475+791.924+111.125L790.934+112.775L790.934+114.59L790.109+115.745L789.614+118.055L787.799+119.87L786.644+123.995L785.324+124.49L784.664+126.305L782.684+127.46L781.364+130.265L779.384+131.255L779.219+133.235L776.084+134.39C774.654+136.37+772.894+137.635+770.804+138.185L770.144+138.35C768.604+140.66+766.569+141.815+764.039+141.815C762.939+142.475+761.674+142.805+760.244+142.805L758.594+143.96L756.944+144.455L754.799+146.105L752.654+145.94L750.344+146.6L747.539+145.445L740.444+144.95L737.969+141.155L734.339+137.36L735.164+134.72L732.689+129.11L733.844+126.965L733.019+123.005L733.844+120.53C733.624+118.99+733.514+117.89+733.514+117.23C733.514+115.14+734.064+113.6+735.164+112.61C735.274+111.51+735.989+109.695+737.309+107.165L738.134+107.165L737.804+106.01L738.299+103.7L738.299+101.225C739.179+100.235+739.674+99.575+739.784+99.245L739.289+96.935L739.289+96.275C740.059+94.735+740.444+93.14+740.444+91.49L743.909+86.705C743.909+86.705+744.046+86.595+744.321+86.375C744.596+86.155+744.844+85.935+745.064+85.715L744.899+85.055L745.559+85.055L748.034+82.25L748.199+78.455L752.324+76.97C753.864+75.98+754.854+74.33+755.294+72.02L757.439+72.02C758.649+71.36+759.749+71.03+760.739+71.03C761.729+71.03+762.664+71.25+763.544+71.69L765.359+71.855L769.649+70.205L771.959+72.35L773.774+73.505L775.094+73.505L777.569+74.825L778.889+74.825C780.319+76.145+781.969+77.96+783.839+80.27L784.169+81.095L785.324+81.755L788.789+86.21L791.924+93.965L791.924+95.615L793.409+101.39ZM782.519+105.35L782.354+104.525C781.584+103.755+781.144+102.93+781.034+102.05L781.529+101.225L780.044+98.09L780.374+94.955L779.714+94.13C778.284+93.03+777.514+92.15+777.404+91.49C776.414+91.05+775.919+89.95+775.919+88.19L774.929+88.025L772.949+84.725L771.464+83.57L767.999+82.25L766.679+81.92C766.019+81.92+765.579+81.7+765.359+81.26L762.059+84.89L759.914+89.51L756.449+91.325L755.954+93.14L754.304+93.965L753.644+98.255L751.664+99.245C751.224+100.785+751.004+102.215+751.004+103.535L748.364+106.01L749.189+106.505C749.189+107.825+748.694+108.98+747.704+109.97C747.374+110.96+746.934+112.06+746.384+113.27L746.384+114.59L745.889+115.25L746.054+117.23L744.239+121.685L744.569+122.51L744.569+127.13L743.909+129.44L744.074+131.75L745.559+133.895L747.869+134.72L748.694+135.05L750.014+134.39L754.304+134.72L754.964+133.07L755.624+133.07C756.284+133.07+756.669+133.235+756.779+133.565L758.264+133.07L759.584+133.565L761.729+132.08L762.059+131.585L763.544+131.255C764.314+130.045+766.129+128.835+768.989+127.625L769.319+126.8L772.619+124.49L774.434+121.85L777.074+120.53L777.239+119.705L778.064+117.89L778.064+115.745L780.044+114.095L780.704+112.94L781.529+111.95C781.089+110.63+780.869+109.695+780.869+109.145C780.869+108.155+781.199+107.11+781.859+106.01L782.519+105.35Z" opacity="1" fill="#e63f21"/>
<path d="M882.839+128.12L880.859+135.05L879.539+137.03C877.779+139.67+876.074+140.99+874.424+140.99C873.104+140.99+871.344+140.055+869.144+138.185L865.844+133.4L864.359+130.43L863.699+127.46L862.214+122.51L862.214+115.25L861.719+108.98L862.214+105.515L861.884+104.525L857.759+110.3L857.264+110.3L857.099+110.795L854.294+115.25L849.674+120.2L846.209+124.985L842.579+128.45C841.589+130.21+840.434+131.75+839.114+133.07L835.814+135.38L833.834+138.02L830.204+139.175L828.719+140.99L825.089+141.65L822.119+143.465L821.624+143.3L821.294+144.125L816.179+143.465L810.074+139.175C808.424+137.305+807.379+135.27+806.939+133.07C807.159+132.96+807.379+132.768+807.599+132.493C807.819+132.217+807.984+132.025+808.094+131.915C807.984+131.805+807.379+131.53+806.279+131.09L804.794+127.79L805.619+126.635L804.794+124.655L805.619+122.345L805.289+119.375L806.444+114.59L806.444+109.475L807.599+107.99L807.599+104.525L808.754+102.38L809.084+99.905L809.414+99.575L809.414+97.43L811.064+94.79L811.394+92.48L812.384+90.83L812.879+89.84L813.539+85.88L814.694+82.415L815.519+81.59L815.849+79.445L817.994+77.135C818.214+76.585+818.709+75.43+819.479+73.67L823.604+71.855L826.244+69.05L833.834+66.905C835.044+66.905+835.979+66.85+836.639+66.74L837.794+67.4L838.124+66.08L841.919+65.75L843.239+66.245L844.394+66.08L845.384+66.905L848.519+67.07L849.179+66.575L850.004+67.235L851.654+67.4L851.654+68.555L852.314+69.05L855.614+69.71L858.089+72.515L861.389+74.99L862.214+76.64L862.379+76.805L863.039+74.495L864.029+72.35L863.699+68.555L864.359+61.625L863.369+58.985L864.689+57.005L864.029+55.19L864.524+50.57L864.029+46.61L862.544+45.455L864.854+42.815L864.854+41C864.854+39.13+864.139+37.095+862.709+34.895L863.699+34.895L865.514+32.255C867.164+31.925+868.649+31.76+869.969+31.76C871.509+31.76+872.774+32.09+873.764+32.75C875.524+33.3+876.404+35.94+876.404+40.67L875.579+40.67L875.414+41.33L876.899+42.65L875.909+45.29L877.394+48.425L876.569+49.415C876.899+50.185+877.064+50.955+877.064+51.725C877.064+52.495+876.899+53.32+876.569+54.2L877.394+55.19C877.614+55.63+877.724+56.345+877.724+57.335C877.724+58.545+877.449+59.645+876.899+60.635C876.349+67.565+875.854+71.855+875.414+73.505C875.524+73.835+875.579+74.33+875.579+74.99C875.579+75.87+875.414+76.805+875.084+77.795L875.084+78.785C875.084+80.105+874.864+81.59+874.424+83.24L873.929+88.19L873.104+89.51L873.599+90.995L872.774+93.47L873.599+95.615L872.279+100.73L873.104+104.525L872.609+106.67L872.939+109.97C873.269+110.74+873.434+111.455+873.434+112.115C873.434+112.665+873.379+113.105+873.269+113.435L874.259+114.425L872.939+117.725L874.259+121.19L873.764+122.18L874.259+123.17L873.764+124.16L874.259+124.655L875.744+125.975L878.549+126.305L882.839+128.12ZM858.254+87.86L857.594+87.53C856.824+87.09+856.136+86.375+855.531+85.385C854.926+84.395+854.349+83.405+853.799+82.415C852.699+82.085+851.764+81.37+850.994+80.27L850.004+80.27L847.034+78.455L843.239+77.63L839.609+78.125L835.814+79.115L834.659+78.125L833.339+78.62L833.339+79.28L831.854+79.61C830.864+81.37+829.324+82.91+827.234+84.23L825.914+87.035L824.594+88.025L823.439+90.665L822.944+96.11L821.459+97.43L821.459+100.4L819.809+101.555L820.139+105.515L817.334+110.96L816.839+113.6L816.509+117.89L817.499+119.705L816.344+121.52L817.334+122.675L815.684+125.645L816.509+127.13L817.169+129.11L818.159+129.77L819.314+129.77L820.799+128.45L822.119+128.615L824.924+127.46L825.254+126.47L828.389+125.315L828.719+124.325L830.699+123.17L830.699+122.84L834.824+118.55L836.804+117.725L837.794+115.58L839.939+115.25L842.579+112.28L842.084+111.95L843.239+110.795L844.889+107.33L846.374+105.845L847.199+102.215L849.839+101.39L851.654+98.75L852.314+98.255L852.314+95.285L854.789+94.13L858.254+87.86Z" opacity="1" fill="#e63f21"/>
</g>
</g>
</svg>
