<?xml version="1.0" encoding="UTF-8" standalone="no"?> <!-- Created with Vectornator Pro for iOS (http://vectornator.io/) --><!DOCTYPE svg PUBLIC "-//W3C//DTD SVG 1.1//EN" "http://www.w3.org/Graphics/SVG/1.1/DTD/svg11.dtd">
<svg height="100%" style="fill-rule:evenodd;clip-rule:evenodd;stroke-linecap:round;stroke-linejoin:round;" xmlns:xlink="http://www.w3.org/1999/xlink" xmlns="http://www.w3.org/2000/svg" xml:space="preserve" width="100%" xmlns:vectornator="http://vectornator.io" version="1.1" viewBox="0 0 640 640">
<metadata>
<vectornator:setting key="DisplayWhiteBackground" value="0"/>
<vectornator:setting key="RulersVisible" value="1"/>
<vectornator:setting key="GridSpacing" value="36"/>
<vectornator:setting key="Units" value="Pixels"/>
<vectornator:setting key="DynamicGuides" value="0"/>
<vectornator:setting key="SnapToPoints" value="1"/>
<vectornator:setting key="CMYKEnabledKey" value="0"/>
<vectornator:setting key="SnapToGrid" value="0"/>
<vectornator:setting key="ShowGrid" value="0"/>
<vectornator:setting key="SnapToEdges" value="0"/>
</metadata>
<defs>
<path id="TextPath" d="M166.702+162.677C251.755+79.82+387.874+81.6001+470.731+166.654C553.589+251.707+551.808+387.826+466.755+470.683C381.701+553.54+245.583+551.76+162.725+466.707C79.868+381.653+81.6482+245.535+166.702+162.677Z" transform="matrix(0.681572 -0.699636 0.699636 0.681573 -78.8153 357.993)"/>
</defs>
<g id="图层 6" vectornator:layerName="图层 6">
<g opacity="1">
<path d="M111.976+272.27C111.976+268.875+111.15+265.994+109.497+263.627C107.845+261.26+105.187+260.076+101.524+260.076C98.1296+260.076+95.3602+261.349+93.2162+263.895C91.0722+266.441+89.3749+269.903+88.1242+274.28C86.8736+278.657+86.0026+283.772+85.5112+289.623C85.0199+295.474+84.7742+301.75+84.7742+308.45C84.7742+316.043+83.7246+322.833+81.6252+328.818C79.5259+334.803+76.4439+339.873+72.3792+344.027C68.3146+348.181+63.3119+351.352+57.3712+353.541C51.4306+355.73+44.6189+356.824+36.9362+356.824C32.7376+356.824+28.7176+356.288+24.8762+355.216C21.0349+354.144+17.6402+352.581+14.6922+350.526C11.7442+348.471+9.37691+345.925+7.59024+342.888C5.80358+339.851+4.91024+336.322+4.91024+332.302C4.91024+330.605+5.11124+328.863+5.51324+327.076C5.91524+325.289+6.56291+323.659+7.45624+322.185C8.34958+320.711+9.51091+319.505+10.9402+318.567C12.3696+317.629+14.0669+317.16+16.0322+317.16C18.5336+317.16+20.6106+317.942+22.2632+319.505C23.9159+321.068+24.7422+323.056+24.7422+325.468C24.7422+327.88+24.0722+329.912+22.7322+331.565C21.3922+333.218+19.4716+334.133+16.9702+334.312C16.7022+335.295+16.5459+336.143+16.5012+336.858C16.4566+337.573+16.4342+338.332+16.4342+339.136C16.4342+340.833+16.8586+342.642+17.7072+344.563C18.5559+346.484+19.8066+348.248+21.4592+349.856C23.1119+351.464+25.1889+352.782+27.6902+353.809C30.1916+354.836+33.0949+355.305+36.4002+355.216C41.0456+355.127+45.0209+354.323+48.3262+352.804C51.6316+351.285+54.4232+349.253+56.7012+346.707C58.9792+344.161+60.8106+341.213+62.1952+337.863C63.5799+334.513+64.6519+330.984+65.4112+327.277C66.1706+323.57+66.6842+319.773+66.9522+315.887C67.2202+312.001+67.3542+308.271+67.3542+304.698C67.3542+298.355+68.0912+292.348+69.5652+286.675C71.0392+281.002+73.3619+276.044+76.5332+271.801C79.7046+267.558+83.7692+264.185+88.7272+261.684C93.6852+259.183+99.6929+257.932+106.75+257.932C109.162+257.932+111.597+258.2+114.053+258.736C116.51+259.272+118.743+260.143+120.753+261.349C122.763+262.555+124.394+264.118+125.644+266.039C126.895+267.96+127.52+270.305+127.52+273.074C127.52+275.933+126.783+278.233+125.309+279.975C123.835+281.717+121.982+283.057+119.748+283.995C117.515+284.933+115.103+285.558+112.512+285.871C109.922+286.184+107.51+286.34+105.276+286.34C107.42+284.464+109.073+282.365+110.234+280.042C111.396+277.719+111.976+275.129+111.976+272.27Z" opacity="1" fill="#ffffff"/>
<path d="M159.948+287.278C160.931+288.707+161.735+290.248+162.36+291.901C162.986+293.554+163.298+295.318+163.298+297.194C163.298+300.678+162.383+303.782+160.551+306.507C158.72+309.232+156.42+311.51+153.65+313.341C150.881+315.172+147.866+316.579+144.605+317.562C141.345+318.545+138.285+319.036+135.426+319.036C132.746+319.036+130.29+318.567+128.056+317.629C125.823+316.691+123.88+315.418+122.227+313.81C120.575+312.202+119.279+310.281+118.341+308.048C117.403+305.815+116.934+303.358+116.934+300.678C116.934+294.246+118.922+288.797+122.897+284.33C126.873+279.863+131.965+276.178+138.173+273.275C144.382+270.372+151.216+268.116+158.675+266.508C166.135+264.9+173.371+263.716+180.383+262.957C187.396+262.198+193.694+261.751+199.277+261.617C204.861+261.483+208.858+261.416+211.27+261.416C215.648+261.416+219.333+261.237+222.325+260.88C225.318+260.523+227.909+260.121+230.097+259.674C232.286+259.227+234.184+258.825+235.792+258.468C237.4+258.111+238.964+257.932+240.482+257.932C242.09+257.932+243.453+258.178+244.569+258.669C245.686+259.16+246.244+260.031+246.244+261.282C246.244+262.265+245.641+262.979+244.435+263.426C243.229+263.873+241.778+264.096+240.08+264.096C237.4+264.096+235.189+263.962+233.447+263.694C231.705+263.426+230.298+263.292+229.226+263.292C225.653+263.292+222.035+264.364+218.372+266.508C214.71+268.652+211.025+271.734+207.317+275.754C203.61+279.774+199.88+284.665+196.128+290.427C192.376+296.189+188.669+302.733+185.006+310.058C180.718+318.545+176.051+325.758+171.003+331.699C165.956+337.64+160.618+342.464+154.99+346.171C149.362+349.878+143.466+352.581+137.302+354.278C131.138+355.975+124.796+356.824+118.274+356.824C114.254+356.824+110.48+356.355+106.951+355.417C103.423+354.479+100.363+353.161+97.7722+351.464C95.1816+349.767+93.1269+347.734+91.6082+345.367C90.0896+343+89.3302+340.387+89.3302+337.528C89.3302+334.401+90.3129+331.878+92.2782+329.957C94.2436+328.036+96.7449+327.076+99.7822+327.076C102.373+327.076+104.271+327.969+105.477+329.756C106.683+331.543+107.286+333.553+107.286+335.786C107.286+337.483+106.795+338.935+105.812+340.141C104.83+341.347+103.624+342.173+102.194+342.62C102.641+346.819+104.294+349.968+107.152+352.067C110.011+354.166+113.718+355.216+118.274+355.216C124.617+355.216+130.29+353.608+135.292+350.392C140.295+347.176+144.762+343.223+148.692+338.533C152.623+333.843+156.062+328.818+159.01+323.458C161.958+318.098+164.594+313.274+166.916+308.986C170.49+302.375+174.085+296.68+177.703+291.901C181.321+287.122+185.341+282.945+189.763+279.372C194.185+275.799+199.121+272.739+204.57+270.193C210.02+267.647+216.362+265.347+223.598+263.292L223.464+263.024C217.211+263.024+210.578+263.247+203.565+263.694C196.553+264.141+189.629+264.9+182.795+265.972C175.961+267.044+169.44+268.473+163.231+270.26C157.023+272.047+151.573+274.347+146.883+277.161C142.193+279.975+138.441+283.325+135.627+287.211C132.813+291.097+131.406+295.631+131.406+300.812C131.406+304.564+132.545+307.735+134.823+310.326C137.101+312.917+140.116+314.212+143.868+314.212C146.191+314.212+148.402+313.698+150.501+312.671C152.601+311.644+154.499+310.326+156.196+308.718C157.894+307.11+159.234+305.301+160.216+303.291C161.199+301.281+161.69+299.338+161.69+297.462C161.69+293.889+160.708+290.717+158.742+287.948L159.948+287.278Z" opacity="1" fill="#ffffff"/>
<path d="M242.358+355.082C245.038+350.526+247.339+345.568+249.259+340.208C251.18+334.848+253.145+329.332+255.155+323.659C257.165+317.986+259.399+312.291+261.855+306.574C264.312+300.857+267.327+295.296+270.9+289.891C274.474+284.486+278.829+279.372+283.965+274.548C289.102+269.724+295.378+265.436+302.792+261.684L302.524+261.416C295.199+264.185+288.544+267.848+282.558+272.404C276.573+276.96+271.235+281.784+266.545+286.876C261.855+291.968+257.791+296.926+254.351+301.75C250.912+306.574+248.031+310.639+245.708+313.944C241.331+320.197+237.199+325.892+233.313+331.029C229.427+336.166+225.497+340.565+221.521+344.228C217.546+347.891+213.37+350.727+208.992+352.737C204.615+354.747+199.657+355.752+194.118+355.752C191.617+355.752+189.25+355.395+187.016+354.68C184.783+353.965+182.795+352.916+181.053+351.531C179.311+350.146+177.927+348.449+176.899+346.439C175.872+344.429+175.358+342.084+175.358+339.404C175.358+336.724+176.207+334.357+177.904+332.302C179.602+330.247+181.835+329.22+184.604+329.22C186.927+329.22+188.87+329.935+190.433+331.364C191.997+332.793+192.778+334.759+192.778+337.26C192.778+339.136+192.242+340.766+191.17+342.151C190.098+343.536+188.624+344.317+186.748+344.496C187.106+347.533+188.133+349.722+189.83+351.062C191.528+352.402+193.761+353.072+196.53+353.072C201.533+353.072+206.268+351.777+210.734+349.186C215.201+346.595+219.601+343.067+223.933+338.6C228.266+334.133+232.666+328.885+237.132+322.855C241.599+316.825+246.289+310.371+251.202+303.492C255.133+297.953+259.22+292.772+263.463+287.948C267.707+283.124+272.263+278.724+277.131+274.749C282+270.774+287.248+267.245+292.876+264.163C298.504+261.081+304.668+258.557+311.368+256.592L312.44+258.2C307.259+260.791+302.993+264.029+299.643+267.915C296.293+271.801+293.39+276.089+290.933+280.779C288.477+285.469+286.266+290.449+284.3+295.72C282.335+300.991+280.191+306.395+277.868+311.934C275.546+317.473+272.843+322.989+269.761+328.483C266.679+333.977+262.726+339.315+257.902+344.496L258.17+344.764C261.565+341.727+264.736+338.734+267.684+335.786C270.632+332.838+273.759+329.466+277.064+325.669C280.37+321.872+284.01+317.45+287.985+312.403C291.961+307.356+296.584+301.303+301.854+294.246C305.785+288.975+309.917+284.129+314.249+279.707C318.582+275.285+323.205+271.466+328.118+268.25C333.032+265.034+338.258+262.51+343.796+260.679C349.335+258.848+355.231+257.932+361.484+257.932C364.79+257.932+367.068+258.155+368.318+258.602C369.569+259.049+370.194+259.808+370.194+260.88C370.194+261.416+369.815+261.907+369.055+262.354C368.296+262.801+367.291+263.024+366.04+263.024C364.522+263.024+363.271+262.935+362.288+262.756C361.306+262.577+360.323+262.399+359.34+262.22C358.715+262.041+357.844+261.863+356.727+261.684C355.611+261.505+354.561+261.416+353.578+261.416C352.06+261.416+350.318+262.131+348.352+263.56C346.387+264.989+344.377+267.066+342.322+269.791C340.268+272.516+338.191+275.821+336.091+279.707C333.992+283.593+332.004+287.948+330.128+292.772C327.18+300.544+324.299+307.534+321.485+313.743C318.671+319.952+315.478+325.513+311.904+330.426C308.331+335.339+304.132+339.65+299.308+343.357C294.484+347.064+288.633+350.303+281.754+353.072L281.754+353.34L282.022+353.34C287.025+353.34+292.117+352.916+297.298+352.067C302.48+351.218+307.304+349.767+311.77+347.712C316.505+345.568+321.15+342.285+325.706+337.863C330.262+333.441+334.952+327.165+339.776+319.036L340.982+319.438C337.052+326.138+333.166+331.677+329.324+336.054C325.483+340.431+321.329+343.96+316.862+346.64C313.557+348.605+310.14+350.146+306.611+351.263C303.083+352.38+299.643+353.184+296.293+353.675C292.943+354.166+289.861+354.457+287.047+354.546C284.233+354.635+281.933+354.68+280.146+354.68C279.342+354.68+278.561+354.747+277.801+354.881C277.042+355.015+276.238+355.149+275.389+355.283C274.541+355.417+273.58+355.529+272.508+355.618C271.436+355.707+270.096+355.752+268.488+355.752C265.719+355.752+264.334+355.037+264.334+353.608C264.334+352+265.496+351.196+267.818+351.196C268.622+351.196+269.516+351.285+270.498+351.464C271.481+351.643+272.464+351.866+273.446+352.134C274.429+352.402+275.367+352.625+276.26+352.804C277.154+352.983+277.913+353.072+278.538+353.072C280.504+353.072+282.38+352.045+284.166+349.99C285.953+347.935+287.762+345.144+289.593+341.615C291.425+338.086+293.323+333.999+295.288+329.354C297.254+324.709+299.442+319.84+301.854+314.748C304.266+309.656+306.946+304.475+309.894+299.204C312.842+293.933+316.17+288.908+319.877+284.129C323.585+279.35+327.761+274.95+332.406+270.93C337.052+266.91+342.233+263.649+347.95+261.148L347.682+260.88C343.037+262.041+338.593+263.828+334.349+266.24C330.106+268.652+326.041+271.488+322.155+274.749C318.269+278.01+314.517+281.695+310.899+285.804C307.281+289.913+303.775+294.291+300.38+298.936C296.986+303.581+293.1+308.718+288.722+314.346C284.345+319.974+279.7+325.468+274.786+330.828C269.873+336.188+264.803+341.079+259.577+345.501C254.351+349.923+249.148+353.251+243.966+355.484L242.358+355.082Z" opacity="1" fill="#ffffff"/>
<path d="M470.024+255.52C467.702+256.056+465.446+256.637+463.257+257.262C461.069+257.887+458.947+258.825+456.892+260.076C459.394+261.059+461.739+262.309+463.927+263.828C466.116+265.347+468.014+267.089+469.622+269.054C471.23+271.019+472.503+273.208+473.441+275.62C474.379+278.032+474.848+280.667+474.848+283.526C474.848+288.082+473.933+292.035+472.101+295.385C470.27+298.735+467.858+301.527+464.865+303.76C461.873+305.993+458.523+307.668+454.815+308.785C451.108+309.902+447.378+310.46+443.626+310.46C441.929+310.46+440.232+310.259+438.534+309.857C436.837+309.455+435.296+308.852+433.911+308.048C432.527+307.244+431.388+306.239+430.494+305.033C429.601+303.827+429.154+302.42+429.154+300.812C429.154+298.936+429.847+297.395+431.231+296.189C432.616+294.983+434.336+294.38+436.39+294.38C438.624+294.38+440.455+295.095+441.884+296.524C440.634+297.417+439.673+298.534+439.003+299.874C438.333+301.214+437.998+302.643+437.998+304.162C437.998+305.413+438.333+306.418+439.003+307.177C439.673+307.936+440.634+308.316+441.884+308.316C444.386+308.316+446.686+307.199+448.785+304.966C450.885+302.733+452.716+300.053+454.279+296.926C455.843+293.799+457.071+290.494+457.964+287.01C458.858+283.526+459.304+280.578+459.304+278.166C459.304+274.95+458.634+272.069+457.294+269.523C455.954+266.977+454.212+264.945+452.068+263.426C446.44+268.071+441.728+273.141+437.931+278.635C434.135+284.129+430.651+289.735+427.479+295.452C424.308+301.169+421.204+306.842+418.166+312.47C415.129+318.098+411.511+323.413+407.312+328.416C403.114+333.419+398.111+337.952+392.304+342.017C386.498+346.082+379.217+349.409+370.462+352L370.462+352.268C372.338+352.536+374.438+352.782+376.76+353.005C379.083+353.228+381.45+353.429+383.862+353.608C386.274+353.787+388.597+353.921+390.83+354.01C393.064+354.099+394.984+354.144+396.592+354.144C403.114+354.144+409.523+353.608+415.821+352.536C422.119+351.464+428.216+349.61+434.112+346.975C440.008+344.34+445.681+340.744+451.13+336.188C456.58+331.632+461.672+325.87+466.406+318.902L467.612+319.572C463.235+325.825+458.813+331.297+454.346+335.987C449.88+340.677+445.167+344.563+440.209+347.645C435.251+350.727+429.869+353.027+424.062+354.546C418.256+356.065+411.824+356.824+404.766+356.824C400.657+356.824+396.592+356.668+392.572+356.355C388.552+356.042+384.845+355.685+381.45+355.283C378.056+354.881+375.13+354.501+372.673+354.144C370.217+353.787+368.497+353.519+367.514+353.34C364.12+354.055+360.658+354.635+357.129+355.082C353.601+355.529+349.692+355.752+345.404+355.752C340.58+355.752+336.806+355.216+334.081+354.144C331.357+353.072+329.994+351.777+329.994+350.258C329.994+348.025+331.558+346.908+334.684+346.908C336.828+346.908+339.33+347.087+342.188+347.444C345.047+347.801+347.95+348.226+350.898+348.717C353.846+349.208+356.683+349.722+359.407+350.258C362.132+350.794+364.477+351.196+366.442+351.464C370.016+350.213+373.209+348.449+376.023+346.171C378.837+343.893+381.517+341.101+384.063+337.796C386.609+334.491+389.155+330.716+391.701+326.473C394.247+322.23+396.994+317.517+399.942+312.336C402.89+307.155+406.039+301.951+409.389+296.725C412.739+291.499+416.335+286.541+420.176+281.851C424.018+277.161+428.194+272.962+432.705+269.255C437.217+265.548+442.152+262.622+447.512+260.478C445.1+259.317+442.175+258.468+438.735+257.932C435.296+257.396+432.013+257.128+428.886+257.128C421.204+257.128+413.521+258.379+405.838+260.88C398.156+263.381+391.232+266.865+385.068+271.332C378.904+275.799+373.902+281.136+370.06+287.345C366.219+293.554+364.298+300.41+364.298+307.914C364.298+309.701+364.499+311.487+364.901+313.274C365.303+315.061+365.973+316.646+366.911+318.031C367.849+319.416+369.055+320.555+370.529+321.448C372.003+322.341+373.768+322.788+375.822+322.788C379.306+322.788+382.299+321.85+384.8+319.974C387.302+318.098+389.356+315.775+390.964+313.006C392.572+310.237+393.756+307.311+394.515+304.229C395.275+301.147+395.654+298.4+395.654+295.988C395.654+293.308+395.498+291.097+395.185+289.355C394.873+287.613+394.493+285.983+394.046+284.464L395.52+284.33C395.878+285.759+396.257+287.345+396.659+289.087C397.061+290.829+397.262+293.129+397.262+295.988C397.262+299.472+396.682+303.179+395.52+307.11C394.359+311.041+392.617+314.659+390.294+317.964C387.972+321.269+385.001+324.016+381.383+326.205C377.765+328.394+373.5+329.488+368.586+329.488C362.69+329.488+357.911+327.724+354.248+324.195C350.586+320.666+348.754+315.954+348.754+310.058C348.754+304.162+350.094+298.735+352.774+293.777C355.454+288.819+358.983+284.308+363.36+280.243C367.738+276.178+372.763+272.605+378.435+269.523C384.108+266.441+389.937+263.873+395.922+261.818C401.908+259.763+407.826+258.2+413.677+257.128C419.529+256.056+424.822+255.52+429.556+255.52C434.827+255.52+439.249+255.833+442.822+256.458C446.396+257.083+449.567+257.843+452.336+258.736C452.783+258.557+453.587+258.245+454.748+257.798C455.91+257.351+457.294+256.905+458.902+256.458C460.51+256.011+462.252+255.609+464.128+255.252C466.004+254.895+467.836+254.716+469.622+254.716L470.024+255.52Z" opacity="1" fill="#ffffff"/>
<path d="M554.31+319.974C546.27+327.835+538.275+335.518+530.324+343.022C522.374+350.526+514.378+358.298+506.338+366.338C506.07+368.661+505.423+370.76+504.395+372.636C503.368+374.512+502.05+376.12+500.442+377.46C498.834+378.8+497.07+379.827+495.149+380.542C493.229+381.257+491.286+381.614+489.32+381.614C487.98+381.614+487.31+381.078+487.31+380.006C487.31+379.381+487.467+378.934+487.779+378.666C488.092+378.398+488.427+378.063+488.784+377.661C489.142+377.259+489.477+376.701+489.789+375.986C490.102+375.271+490.258+374.155+490.258+372.636C490.258+369.063+489.655+366.003+488.449+363.457C487.243+360.911+485.613+358.856+483.558+357.293C481.504+355.73+479.047+354.591+476.188+353.876C473.33+353.161+470.292+352.804+467.076+352.804C465.2+352.804+463.123+352.96+460.845+353.273C458.567+353.586+456.2+353.921+453.743+354.278C451.287+354.635+448.785+354.97+446.239+355.283C443.693+355.596+441.214+355.752+438.802+355.752C434.246+355.752+431.968+354.635+431.968+352.402C431.968+351.419+432.437+350.571+433.375+349.856C434.313+349.141+435.81+348.784+437.864+348.784C440.008+348.784+442.398+348.873+445.033+349.052C447.669+349.231+450.259+349.454+452.805+349.722C455.351+349.99+457.786+350.213+460.108+350.392C462.431+350.571+464.307+350.66+465.736+350.66C468.416+350.66+471.163+349.543+473.977+347.31C476.791+345.077+479.561+342.24+482.285+338.801C485.01+335.362+487.668+331.52+490.258+327.277C492.849+323.034+495.194+318.902+497.293+314.882C499.393+310.862+501.224+307.199+502.787+303.894C504.351+300.589+505.534+298.132+506.338+296.524C503.926+296.077+501.537+295.34+499.169+294.313C496.802+293.286+494.703+291.946+492.871+290.293C491.04+288.64+489.566+286.72+488.449+284.531C487.333+282.342+486.774+279.908+486.774+277.228C486.774+272.136+488.271+268.228+491.263+265.503C494.256+262.778+497.762+261.416+501.782+261.416C503.48+261.416+505.021+261.595+506.405+261.952C507.79+262.309+508.84+262.667+509.554+263.024L509.152+264.364C507.902+263.917+506.696+263.582+505.534+263.359C504.373+263.136+503.122+263.024+501.782+263.024C497.584+263.024+494.301+264.409+491.933+267.178C489.566+269.947+488.382+273.297+488.382+277.228C488.382+279.64+488.918+281.873+489.99+283.928C491.062+285.983+492.469+287.769+494.211+289.288C495.953+290.807+497.941+292.08+500.174+293.107C502.408+294.134+504.641+294.827+506.874+295.184C509.286+290.092+512.48+285.268+516.455+280.712C520.431+276.156+524.897+272.203+529.855+268.853C534.813+265.503+540.106+262.845+545.734+260.88C551.362+258.915+557.035+257.932+562.752+257.932C565.343+257.932+567.844+258.2+570.256+258.736C572.668+259.272+574.857+260.143+576.822+261.349C578.788+262.555+580.351+264.096+581.512+265.972C582.674+267.848+583.254+270.171+583.254+272.94C583.254+276.067+582.406+278.903+580.708+281.449C579.011+283.995+576.755+286.251+573.941+288.216C571.127+290.181+567.911+291.879+564.293+293.308C560.675+294.737+556.968+295.899+553.171+296.792C549.375+297.685+545.6+298.355+541.848+298.802C538.096+299.249+534.702+299.472+531.664+299.472C530.414+299.472+529.118+299.427+527.778+299.338C526.438+299.249+525.098+299.115+523.758+298.936C520.542+305.279+517.483+310.728+514.579+315.284C511.676+319.84+508.862+323.748+506.137+327.009C503.413+330.27+500.71+333.017+498.03+335.25C495.35+337.483+492.536+339.471+489.588+341.213C486.64+342.955+483.558+344.563+480.342+346.037C477.126+347.511+473.598+349.141+469.756+350.928L469.756+351.196C473.062+351.196+476.657+351.263+480.543+351.397C484.429+351.531+488.137+352+491.665+352.804C495.194+353.608+498.276+354.926+500.911+356.757C503.547+358.588+505.266+361.201+506.07+364.596C508.214+362.273+511.14+359.303+514.847+355.685C518.555+352.067+522.575+348.203+526.907+344.094C531.24+339.985+535.684+335.808+540.24+331.565C544.796+327.322+549.04+323.324+552.97+319.572L554.31+319.974ZM568.782+268.518C568.782+265.838+568.068+263.672+566.638+262.019C565.209+260.366+563.244+259.54+560.742+259.54C558.241+259.54+555.74+260.188+553.238+261.483C550.737+262.778+548.303+264.498+545.935+266.642C543.568+268.786+541.29+271.22+539.101+273.945C536.913+276.67+534.88+279.439+533.004+282.253C531.128+285.067+529.453+287.814+527.979+290.494C526.505+293.174+525.322+295.541+524.428+297.596C525.411+297.775+526.438+297.864+527.51+297.864C528.582+297.864+529.833+297.864+531.262+297.864C538.856+297.864+545.087+296.703+549.955+294.38C554.824+292.057+558.643+289.333+561.412+286.206C564.182+283.079+566.102+279.841+567.174+276.491C568.246+273.141+568.782+270.483+568.782+268.518Z" opacity="1" fill="#ffffff"/>
<path d="M600.674+289.958C603.354+290.851+606.168+291.298+609.116+291.298C611.886+291.298+614.208+290.784+616.084+289.757C617.96+288.73+619.479+287.412+620.64+285.804C621.802+284.196+622.65+282.432+623.186+280.511C623.722+278.59+623.99+276.692+623.99+274.816C623.99+272.94+623.767+271.086+623.32+269.255C622.874+267.424+622.181+265.793+621.243+264.364C620.305+262.935+619.077+261.773+617.558+260.88C616.04+259.987+614.253+259.54+612.198+259.54C609.518+259.54+607.24+260.21+605.364+261.55C603.488+262.89+601.88+264.878+600.54+267.513C599.2+270.148+598.061+273.431+597.123+277.362C596.185+281.293+595.314+285.804+594.51+290.896C594.153+293.129+593.148+295.028+591.495+296.591C589.843+298.154+587.855+299.651+585.532+301.08C583.21+302.509+580.753+303.983+578.162+305.502C575.572+307.021+573.182+308.852+570.993+310.996C568.805+313.14+566.996+315.686+565.566+318.634C564.137+321.582+563.422+325.245+563.422+329.622C563.422+333.285+564.025+336.59+565.231+339.538C566.437+342.486+568.09+344.987+570.189+347.042C572.289+349.097+574.723+350.66+577.492+351.732C580.262+352.804+583.165+353.34+586.202+353.34C591.026+353.34+595.113+352.603+598.463+351.129C601.813+349.655+604.516+347.779+606.57+345.501C608.625+343.223+610.121+340.722+611.059+337.997C611.997+335.272+612.466+332.659+612.466+330.158C612.466+328.282+612.198+326.428+611.662+324.597C611.126+322.766+610.345+321.158+609.317+319.773C608.29+318.388+606.995+317.272+605.431+316.423C603.868+315.574+602.014+315.15+599.87+315.15C597.548+315.15+595.381+315.686+593.371+316.758C591.361+317.83+589.53+319.148+587.877+320.711C586.225+322.274+584.773+323.927+583.522+325.669C582.272+327.411+581.244+328.952+580.44+330.292L579.1+329.756C580.44+327.433+582.115+325.088+584.125+322.721C586.135+320.354+588.413+318.21+590.959+316.289C593.505+314.368+596.252+312.805+599.2+311.599C602.148+310.393+605.141+309.79+608.178+309.79C614.61+309.79+619.345+311.242+622.382+314.145C625.42+317.048+626.938+320.778+626.938+325.334C626.938+329.443+625.464+333.419+622.516+337.26C619.568+341.101+615.705+344.451+610.925+347.31C606.146+350.169+600.741+352.469+594.711+354.211C588.681+355.953+582.629+356.824+576.554+356.824C573.338+356.824+569.899+356.467+566.236+355.752C562.574+355.037+559.179+353.809+556.052+352.067C552.926+350.325+550.335+348.047+548.28+345.233C546.226+342.419+545.198+338.913+545.198+334.714C545.198+330.337+546.248+326.674+548.347+323.726C550.447+320.778+552.97+318.299+555.918+316.289C558.866+314.279+561.904+312.582+565.03+311.197C568.157+309.812+570.703+308.45+572.668+307.11C573.83+306.306+574.678+304.676+575.214+302.219C575.75+299.762+576.286+296.993+576.822+293.911C577.358+290.829+578.006+287.658+578.765+284.397C579.525+281.136+580.619+278.345+582.048+276.022C584.103+272.717+586.56+269.925+589.418+267.647C592.277+265.369+595.27+263.515+598.396+262.086C601.523+260.657+604.65+259.607+607.776+258.937C610.903+258.267+613.717+257.932+616.218+257.932C618.72+257.932+621.199+258.2+623.655+258.736C626.112+259.272+628.323+260.143+630.288+261.349C632.254+262.555+633.839+264.185+635.045+266.24C636.251+268.295+636.854+270.841+636.854+273.878C636.854+277.183+635.983+280.042+634.241+282.454C632.499+284.866+630.311+286.854+627.675+288.417C625.04+289.98+622.159+291.119+619.032+291.834C615.906+292.549+612.913+292.906+610.054+292.906C608.536+292.906+606.928+292.75+605.23+292.437C603.533+292.124+601.925+291.655+600.406+291.03L600.674+289.958Z" opacity="1" fill="#ffffff"/>
</g>
<g opacity="1">
<path d="M230.965+425.968C230.965+425.203+231.245+424.54+231.805+423.979C232.366+423.419+233.036+423.138+233.815+423.138C234.594+423.138+235.264+423.419+235.825+423.979C236.385+424.54+236.666+425.21+236.666+425.989C236.666+426.782+236.385+427.459+235.825+428.019C235.278+428.566+234.608+428.839+233.815+428.839C233.009+428.839+232.332+428.566+231.785+428.019C231.238+427.472+230.965+426.789+230.965+425.968Z" opacity="1" fill="#ffffff"/>
<path d="M272.862+414.648L261.829+414.648L261.829+422.256L272.472+422.256L272.472+426.748L261.829+426.748L261.829+441.821L257.051+441.821L257.051+410.157L272.862+410.157L272.862+414.648Z" opacity="1" fill="#ffffff"/>
<path d="M276.861+425.845C276.861+421.388+278.495+417.56+281.762+414.361C285.016+411.162+288.926+409.562+293.493+409.562C298.005+409.562+301.874+411.175+305.1+414.402C308.341+417.628+309.961+421.504+309.961+426.03C309.961+430.583+308.334+434.445+305.08+437.617C301.812+440.802+297.868+442.395+293.247+442.395C289.159+442.395+285.488+440.98+282.234+438.15C278.652+435.019+276.861+430.918+276.861+425.845ZM281.68+425.907C281.68+429.407+282.856+432.285+285.208+434.541C287.546+436.796+290.246+437.924+293.308+437.924C296.631+437.924+299.433+436.776+301.717+434.479C304+432.155+305.141+429.325+305.141+425.989C305.141+422.612+304.013+419.782+301.758+417.499C299.515+415.202+296.74+414.053+293.431+414.053C290.136+414.053+287.354+415.202+285.085+417.499C282.815+419.768+281.68+422.571+281.68+425.907Z" opacity="1" fill="#ffffff"/>
<path d="M314.39+425.845C314.39+421.388+316.024+417.56+319.292+414.361C322.546+411.162+326.456+409.562+331.022+409.562C335.534+409.562+339.403+411.175+342.63+414.402C345.87+417.628+347.49+421.504+347.49+426.03C347.49+430.583+345.863+434.445+342.609+437.617C339.342+440.802+335.397+442.395+330.776+442.395C326.688+442.395+323.017+440.98+319.763+438.15C316.181+435.019+314.39+430.918+314.39+425.845ZM319.21+425.907C319.21+429.407+320.385+432.285+322.737+434.541C325.075+436.796+327.775+437.924+330.838+437.924C334.16+437.924+336.963+436.776+339.246+434.479C341.529+432.155+342.671+429.325+342.671+425.989C342.671+422.612+341.543+419.782+339.287+417.499C337.045+415.202+334.269+414.053+330.961+414.053C327.666+414.053+324.884+415.202+322.614+417.499C320.344+419.768+319.21+422.571+319.21+425.907Z" opacity="1" fill="#ffffff"/>
<path d="M353.499+441.821L353.499+410.157L360.143+410.157C363.329+410.157+365.844+410.471+367.69+411.1C369.673+411.715+371.47+412.761+373.084+414.238C376.351+417.218+377.985+421.135+377.985+425.989C377.985+430.856+376.283+434.794+372.879+437.801C371.17+439.305+369.379+440.351+367.506+440.939C365.756+441.527+363.274+441.821+360.061+441.821L353.499+441.821ZM358.277+437.33L360.43+437.33C362.577+437.33+364.361+437.104+365.783+436.653C367.205+436.174+368.49+435.416+369.638+434.377C371.99+432.23+373.166+429.434+373.166+425.989C373.166+422.516+372.004+419.7+369.679+417.54C367.588+415.612+364.505+414.648+360.43+414.648L358.277+414.648L358.277+437.33Z" opacity="1" fill="#ffffff"/>
<path d="M396.791+425.968C396.791+425.203+397.071+424.54+397.632+423.979C398.192+423.419+398.862+423.138+399.641+423.138C400.421+423.138+401.091+423.419+401.651+423.979C402.212+424.54+402.492+425.21+402.492+425.989C402.492+426.782+402.212+427.459+401.651+428.019C401.104+428.566+400.434+428.839+399.641+428.839C398.835+428.839+398.158+428.566+397.611+428.019C397.064+427.472+396.791+426.789+396.791+425.968Z" opacity="1" fill="#ffffff"/>
</g>
<path stroke="#ffffff" stroke-width="10" d="M502.606+390.649C472.245+466.936+396.445+519.614+309.683+516.556C227.831+513.671+159.205+461.99+130.78+390.46" fill="none" stroke-linecap="round" opacity="1" stroke-linejoin="round"/>
<path stroke="#ffffff" stroke-width="10" d="M130.707+243.075C160.971+166.592+236.874+113.741+323.774+116.804C406.573+119.723+475.839+172.574+503.648+245.393" fill="none" stroke-linecap="round" opacity="1" stroke-linejoin="round"/>
<path stroke="#ffffff" stroke-width="10" d="M581.426+391.483C547.848+510.664+436.291+596.065+307.041+591.509C184.523+587.191+83.556+503.363+51.9886+391.37" fill="none" stroke-linecap="round" opacity="1" stroke-linejoin="round"/>
<path stroke="#ffffff" stroke-width="10" d="M51.677+243.145C84.8186+123.303+196.707+37.2787+326.416+41.8509C450.268+46.2165+552.097+131.833+582.475+245.659" fill="none" stroke-linecap="round" opacity="1" stroke-linejoin="round"/>
<text font-size="42" font-family="'Futura-Medium'" transform="matrix(0.714413 0.733347 -0.733347 0.714413 318.84 -197.956)" opacity="1" fill="#ffffff">
<textPath xlink:href="#TextPath" method="align" startOffset="0pt">
<![CDATA[· SIMPLE FOOD ·]]></textPath>
</text>
</g>
</svg>
