<?xml version="1.0" encoding="UTF-8" standalone="no"?> <!-- Created with Vectornator Pro for iOS (http://vectornator.io/) --><!DOCTYPE svg PUBLIC "-//W3C//DTD SVG 1.1//EN" "http://www.w3.org/Graphics/SVG/1.1/DTD/svg11.dtd">
<svg height="100%" style="fill-rule:evenodd;clip-rule:evenodd;stroke-linecap:round;stroke-linejoin:round;" xmlns:xlink="http://www.w3.org/1999/xlink" xmlns="http://www.w3.org/2000/svg" xml:space="preserve" width="100%" xmlns:vectornator="http://vectornator.io" version="1.1" viewBox="0 0 600 600">
<metadata>
<vectornator:setting key="DisplayWhiteBackground" value="0"/>
<vectornator:setting key="RulersVisible" value="1"/>
<vectornator:setting key="GridSpacing" value="36"/>
<vectornator:setting key="Units" value="Pixels"/>
<vectornator:setting key="DynamicGuides" value="1"/>
<vectornator:setting key="SnapToPoints" value="0"/>
<vectornator:setting key="SnapToGrid" value="0"/>
<vectornator:setting key="ShowGrid" value="0"/>
<vectornator:setting key="SnapToEdges" value="0"/>
</metadata>
<defs/>
<g id="图层 2" vectornator:layerName="图层 2">
<path d="M0+0L600+0L600+600L0+600L0+0Z" opacity="1" fill="#e63f21"/>
</g>
<g id="图层 1" vectornator:layerName="图层 1">
<g opacity="1">
<path d="M310.686+331.9C310.686+334.3+309.386+337.2+306.786+340.6C303.586+344.8+299.686+348.1+295.086+350.5C293.486+351.9+291.786+352.7+289.986+352.9C286.386+355.3+282.886+356.6+279.486+356.8C278.086+358.2+275.686+359.5+272.286+360.7L266.886+360.4L261.486+364.9L255.786+363.7L253.986+364L249.486+364.6C246.486+365+243.986+365.2+241.986+365.2C241.586+365.2+240.886+365.1+239.886+364.9C238.886+364.9+238.086+364.9+237.486+364.9L233.286+366.4L227.286+367L220.386+366.7L217.086+368.2L217.986+369.1C213.386+369.1+209.786+369.5+207.186+370.3L205.686+370L193.386+369.1L175.986+368.5L170.286+367.6C168.486+368.4+166.386+368.8+163.986+368.8C161.186+368.8+158.286+367.9+155.286+366.1L149.586+368.2L146.586+365.5C138.186+365.3+133.286+364.5+131.886+363.1L130.686+362.5C131.286+362.5+129.586+362.7+125.586+363.1L113.886+355.3L108.486+354.1C105.086+352.5+102.186+349.7+99.7862+345.7C97.7862+342.3+96.7862+339+96.7862+335.8C96.7862+333.6+97.7862+329.7+99.7862+324.1L105.786+317.5L112.986+317.8C114.586+315.6+116.886+314.5+119.886+314.5C126.286+314.5+129.486+319.6+129.486+329.8C125.286+330.8+122.786+331.6+121.986+332.2C120.986+333.4+119.486+334.7+117.486+336.1L117.486+337L120.186+338.5L123.786+342.4L135.486+341.8L145.386+344.8L160.986+344.5L166.686+348.1L169.386+346.6C170.586+346.6+172.086+346.9+173.886+347.5L181.686+348.4L182.286+349.9L187.086+349.9C191.686+348.5+194.286+347.8+194.886+347.8C195.886+347.8+197.086+348.1+198.486+348.7C200.286+348.3+202.586+348.1+205.386+348.1C207.386+348.1+209.186+348.3+210.786+348.7C212.186+347.9+213.786+347.5+215.586+347.5C217.786+347.5+219.686+347.9+221.286+348.7L227.886+346.9L231.186+343.3L242.586+344.5C248.386+342.7+252.986+341.8+256.386+341.8L257.886+341.8C259.286+340.8+260.486+340.3+261.486+340.3C262.086+340.3+262.786+340.5+263.586+340.9C263.586+340.9+264.586+340.5+266.586+339.7L266.586+337.3L272.886+337.3C274.286+335.5+276.786+334.5+280.386+334.3C283.186+331.7+285.486+330.3+287.286+330.1C287.286+330.1+288.086+328.9+289.686+326.5C289.686+324.7+283.286+320.8+270.486+314.8L268.086+313C263.886+312.6+260.586+311.9+258.186+310.9C256.786+310.9+255.486+310.8+254.286+310.6L253.686+310.6C252.686+310.6+248.786+309.4+241.986+307C239.786+305.4+237.486+304.6+235.086+304.6C234.286+304.6+233.086+304.8+231.486+305.2L225.486+305.2L224.586+304.3C221.386+303.7+218.886+302.8+217.086+301.6L213.486+302.8L204.186+298.3L198.186+298.3L194.286+295.9L188.286+295.9L187.386+294.4L182.586+294.4L178.386+289.6L176.286+289.6C170.086+289.6+165.286+288.4+161.886+286L161.286+285.4C156.886+284+153.686+281.8+151.686+278.8L146.586+274L143.286+266.2L139.686+261.4L141.186+249.1L148.386+240.7C149.586+240.5+150.486+239.2+151.086+236.8C151.686+236.6+152.686+236.1+154.086+235.3L169.386+226.9C171.386+227.3+172.786+227.5+173.586+227.5C176.386+227.5+179.286+226.5+182.286+224.5L184.086+224.5L184.086+225.1L187.086+222.4L188.586+222.4C194.986+220+200.286+218.8+204.486+218.8L205.986+218.8L208.686+219.1L213.186+216.4C214.386+216.2+215.986+216.1+217.986+216.1L219.786+216.1C221.186+216.1+223.636+215.9+227.136+215.5C230.636+215.1+233.386+214.8+235.386+214.6L240.786+214.3L248.886+210.1C249.486+210.5+250.786+212+252.786+214.6L259.386+214.6C260.586+214.6+262.786+215.2+265.986+216.4L268.086+216.4C272.886+216.4+276.886+217.4+280.086+219.4C290.686+222+295.986+227.3+295.986+235.3C295.986+242.1+290.486+246.2+279.486+247.6L277.086+244C276.486+243.8+275.436+243.4+273.936+242.8C272.436+242.2+271.286+241.8+270.486+241.6L263.886+241.6L260.886+238.3L256.086+238.9L253.386+241.9L246.186+236.8L238.386+238L229.086+235.9C223.286+236.3+218.386+237.5+214.386+239.5L213.786+239.8C213.186+240.2+212.536+240.55+211.836+240.85C211.136+241.15+210.686+241.3+210.486+241.3L206.286+239.5L197.886+243.4L182.286+247.6L178.686+246.7L172.086+250.9L169.086+250.9L167.286+253.6L160.986+257.8L161.586+259.6C161.586+259.6+162.686+260.7+164.886+262.9L167.886+263.8L172.686+266.8L181.986+270.1L186.486+270.4L194.586+275.2L196.986+274.3C202.786+275.5+206.686+277.1+208.686+279.1L209.586+280L210.186+280C210.186+280+212.186+281.2+216.186+283.6L218.286+281.5L225.486+281.8L226.686+282.4L230.886+282.4L235.086+285.7L237.186+285.7C240.586+285.7+243.586+286.2+246.186+287.2C246.386+287.2+247.386+287.1+249.186+286.9C252.786+286.9+256.786+288.5+261.186+291.7L264.786+290.8L267.486+292L272.586+292L281.286+298L290.286+298.9L293.886+303.7C300.686+307.9+305.136+311.55+307.236+314.65C309.336+317.75+310.386+322.2+310.386+328C310.386+328.4+310.486+329+310.686+329.8C310.686+330.6+310.686+331.3+310.686+331.9Z" opacity="1" fill="#ffffff"/>
<path d="M495.486+221.2C495.486+225+492.586+227+486.786+227.2L481.386+229.6L475.986+228.4L468.186+232.6C463.786+230.4+460.586+229.3+458.586+229.3C458.386+229.3+457.536+229.45+456.036+229.75C454.536+230.05+453.186+230.2+451.986+230.2C450.386+230.2+449.186+230.1+448.386+229.9L441.786+232L440.286+231.7L439.686+232L423.186+232.3L421.386+235.3L413.886+232.9L410.886+234.4L403.686+235L399.186+234.1C397.386+234.3+395.636+234.55+393.936+234.85C392.236+235.15+391.286+235.3+391.086+235.3L387.186+235.9L385.386+237.1L387.186+242.5L389.586+248.8L388.386+253.6L391.386+256L388.986+259.6C389.386+261.2+389.586+262.5+389.586+263.5C389.586+265.3+389.086+267.5+388.086+270.1L387.186+280L391.986+280.3L401.586+277.9L405.786+280.3C406.386+280.3+407.186+280.3+408.186+280.3C408.986+280.5+409.486+280.6+409.686+280.6L410.586+280.6L412.386+278.8L421.686+277.3L428.286+279.7C431.486+278.9+433.786+278.4+435.186+278.2L445.086+278.2L450.786+277L454.086+278.8L458.586+278.2C460.186+278+461.386+277.9+462.186+277.9L479.586+275.8L481.686+276.7C482.286+276.5+482.986+276.4+483.786+276.4C485.186+276.4+486.886+276.8+488.886+277.6C491.486+281.2+492.786+284.4+492.786+287.2C492.786+288.2+492.686+289+492.486+289.6L486.786+290.5L481.686+293.2L477.186+293.2L474.786+295.3L466.386+294.7L458.886+296.8L450.186+298.3L448.386+298L447.786+298.6L436.386+297.4L432.486+298.9L427.086+298.3C424.086+299.7+420.386+300.4+415.986+300.4L413.286+300.4C412.286+300.6+410.186+301.2+406.986+302.2C402.786+299.8+400.686+298.6+400.686+298.6C400.686+298.6+400.086+299.1+398.886+300.1C397.686+301.1+396.286+301.8+394.686+302.2L388.986+301.6L385.386+301.6C384.986+303.6+384.386+309.6+383.586+319.6C384.386+322+384.786+324.1+384.786+325.9L381.786+333.4L383.586+337L381.186+341.8L382.086+346.3L380.586+349C377.986+362.6+376.186+371.3+375.186+375.1C373.586+381.1+371.786+384.6+369.786+385.6L363.186+382.3L355.086+382.3L357.186+373L357.186+368.8L358.986+367L359.586+363.1L359.886+361.6L359.286+361.3L359.286+357.7L356.586+354.7L357.186+352.9C357.186+348.7+357.986+345+359.586+341.8L358.386+340.6L358.986+337L358.086+332.8L359.886+328L359.286+317.2L361.386+306.7L359.886+303.1L359.886+301.6L355.086+303.4L348.186+299.8L345.186+300.4C343.186+300.8+341.986+301+341.586+301C335.986+301+333.186+297.7+333.186+291.1C333.186+282.7+337.386+278.5+345.786+278.5C349.986+278.5+352.986+278.6+354.786+278.8L363.186+279.7L362.586+277.3L362.886+267.7L361.086+267.1L362.286+248.8L359.286+240.7L358.986+238L356.886+236.8L347.286+242.2L342.486+235.6C338.886+234+337.086+230.9+337.086+226.3C338.286+224.5+338.886+223.1+338.886+222.1L338.886+215.2L347.286+215.8C351.486+212.8+355.286+211.3+358.686+211.3C358.486+211.3+361.386+211.7+367.386+212.5C370.986+212.1+377.586+211.6+387.186+211L397.986+212.5L406.086+212.2L407.286+211.3C408.686+210.5+410.186+210.1+411.786+210.1C413.186+210.1+414.286+210.3+415.086+210.7L416.286+211C418.086+210.8+420.786+210.45+424.386+209.95C427.986+209.45+430.686+209.1+432.486+208.9L432.786+209.8L434.586+211.3L435.786+211.3C436.786+211.3+438.186+211.15+439.986+210.85C441.786+210.55+443.086+210.4+443.886+210.4L444.786+210.4L452.886+211.6L461.586+212.5C464.586+211.9+467.386+211.6+469.986+211.6C471.986+211.6+473.886+211.9+475.686+212.5L480.786+212.5C482.586+211.9+484.586+211.6+486.786+211.6C492.586+211.6+495.486+214.8+495.486+221.2Z" opacity="1" fill="#ffffff"/>
</g>
</g>
</svg>
