<?xml version="1.0" encoding="UTF-8" standalone="no"?> <!-- Created with Vectornator Pro for iOS (http://vectornator.io/) --><!DOCTYPE svg PUBLIC "-//W3C//DTD SVG 1.1//EN" "http://www.w3.org/Graphics/SVG/1.1/DTD/svg11.dtd">
<svg height="100%" style="fill-rule:evenodd;clip-rule:evenodd;stroke-linecap:round;stroke-linejoin:round;" xmlns:xlink="http://www.w3.org/1999/xlink" xmlns="http://www.w3.org/2000/svg" xml:space="preserve" width="100%" xmlns:vectornator="http://vectornator.io" version="1.1" viewBox="0 0 840 100">
<metadata>
<vectornator:setting key="DisplayWhiteBackground" value="0"/>
<vectornator:setting key="RulersVisible" value="1"/>
<vectornator:setting key="SnapToEdges" value="0"/>
<vectornator:setting key="Units" value="Pixels"/>
<vectornator:setting key="DynamicGuides" value="1"/>
<vectornator:setting key="SnapToPoints" value="0"/>
<vectornator:setting key="CMYKEnabledKey" value="0"/>
<vectornator:setting key="SnapToGrid" value="0"/>
<vectornator:setting key="ShowGrid" value="0"/>
<vectornator:setting key="GridSpacing" value="36"/>
</metadata>
<defs/>
<g visibility="hidden" id="图层 1" vectornator:layerName="图层 1" opacity="0.423881">
<g opacity="1">
<path d="M22.1411+293.109L39.7193+291.388C40.7772+297.33+42.9236+301.694+46.1585+304.48C49.3933+307.267+53.7574+308.66+59.2505+308.66C65.0692+308.66+69.4536+307.421+72.4036+304.941C75.3536+302.462+76.8286+299.563+76.8286+296.244C76.8286+294.113+76.2081+292.3+74.9671+290.804C73.726+289.308+71.5593+288.007+68.4668+286.901C66.3509+286.163+61.5292+284.852+54.0015+282.967C44.3173+280.549+37.522+277.578+33.6158+274.054C28.1226+269.095+25.376+263.051+25.376+255.921C25.376+251.331+26.6679+247.039+29.2517+243.043C31.8356+239.048+35.5587+236.005+40.4212+233.915C45.2836+231.825+51.1532+230.78+58.0298+230.78C69.2603+230.78+77.7137+233.26+83.3899+238.218C89.0662+243.176+92.0467+249.794+92.3316+258.072L74.2652+258.871C73.4921+254.241+71.8339+250.911+69.2908+248.883C66.7477+246.854+62.933+245.84+57.8467+245.84C52.5977+245.84+48.488+246.926+45.5176+249.098C43.6052+250.491+42.649+252.356+42.649+254.691C42.649+256.822+43.5441+258.646+45.3345+260.162C47.6131+262.088+53.147+264.096+61.9361+266.186C70.7251+268.276+77.2254+270.437+81.4368+272.671C85.6482+274.904+88.9441+277.957+91.3245+281.829C93.7049+285.702+94.8951+290.486+94.8951+296.182C94.8951+301.346+93.4709+306.181+90.6226+310.689C87.7743+315.196+83.746+318.546+78.5376+320.739C73.3293+322.931+66.8392+324.027+59.0674+324.027C47.7556+324.027+39.0682+321.394+33.0054+316.129C26.9426+310.863+23.3212+303.19+22.1411+293.109Z" opacity="1" fill="#484848"/>
<path d="M109.543+322.429L109.543+232.317L127.61+232.317L127.61+322.429L109.543+322.429Z" opacity="1" fill="#484848"/>
<path d="M144.578+322.429L144.578+232.317L171.616+232.317L187.852+293.785L203.904+232.317L231.003+232.317L231.003+322.429L214.219+322.429L214.219+251.495L196.458+322.429L179.063+322.429L161.362+251.495L161.362+322.429L144.578+322.429Z" opacity="1" fill="#484848"/>
<path d="M248.948+322.429L248.948+232.317L277.939+232.317C288.926+232.317+296.087+232.768+299.424+233.669C304.551+235.022+308.844+237.962+312.302+242.49C315.761+247.018+317.49+252.868+317.49+260.039C317.49+265.571+316.493+270.222+314.5+273.992C312.506+277.762+309.973+280.723+306.901+282.874C303.829+285.026+300.706+286.45+297.532+287.146C293.219+288.007+286.973+288.437+278.794+288.437L267.014+288.437L267.014+322.429L248.948+322.429ZM267.014+247.561L267.014+273.132L276.902+273.132C284.023+273.132+288.783+272.661+291.184+271.718C293.585+270.775+295.467+269.3+296.83+267.292C298.193+265.284+298.875+262.949+298.875+260.285C298.875+257.007+297.918+254.302+296.006+252.171C294.093+250.04+291.672+248.708+288.743+248.176C286.586+247.766+282.253+247.561+275.742+247.561L267.014+247.561Z" opacity="1" fill="#484848"/>
<path d="M332.81+322.429L332.81+233.055L350.876+233.055L350.876+307.247L395.798+307.247L395.798+322.429L332.81+322.429Z" opacity="1" fill="#484848"/>
<path d="M408.677+322.429L408.677+232.317L475.022+232.317L475.022+247.561L426.743+247.561L426.743+267.538L471.665+267.538L471.665+282.721L426.743+282.721L426.743+307.247L476.731+307.247L476.731+322.429L408.677+322.429Z" opacity="1" fill="#484848"/>
<path d="M526.902+322.429L526.902+232.317L588.242+232.317L588.242+247.561L544.968+247.561L544.968+268.89L582.322+268.89L582.322+284.135L544.968+284.135L544.968+322.429L526.902+322.429Z" opacity="1" fill="#484848"/>
<path d="M599.473+277.926C599.473+268.747+600.836+261.043+603.562+254.814C605.597+250.225+608.374+246.106+611.893+242.459C615.413+238.812+619.268+236.108+623.46+234.345C629.034+231.969+635.463+230.78+642.747+230.78C655.93+230.78+666.479+234.899+674.393+243.135C682.308+251.372+686.265+262.826+686.265+277.496C686.265+292.043+682.338+303.425+674.485+311.641C666.632+319.858+656.134+323.966+642.991+323.966C629.685+323.966+619.106+319.878+611.252+311.703C603.399+303.528+599.473+292.269+599.473+277.926ZM618.088+277.312C618.088+287.515+620.428+295.25+625.107+300.516C629.787+305.782+635.728+308.414+642.93+308.414C650.132+308.414+656.042+305.802+660.66+300.577C665.279+295.352+667.588+287.515+667.588+277.066C667.588+266.739+665.34+259.035+660.844+253.954C656.347+248.872+650.376+246.332+642.93+246.332C635.483+246.332+629.482+248.903+624.924+254.046C620.367+259.189+618.088+266.944+618.088+277.312Z" opacity="1" fill="#484848"/>
<path d="M696.702+277.926C696.702+268.747+698.065+261.043+700.791+254.814C702.826+250.225+705.603+246.106+709.122+242.459C712.642+238.812+716.497+236.108+720.689+234.345C726.263+231.969+732.692+230.78+739.976+230.78C753.159+230.78+763.708+234.899+771.622+243.135C779.537+251.372+783.494+262.826+783.494+277.496C783.494+292.043+779.567+303.425+771.714+311.641C763.861+319.858+753.363+323.966+740.22+323.966C726.914+323.966+716.335+319.878+708.481+311.703C700.628+303.528+696.702+292.269+696.702+277.926ZM715.317+277.312C715.317+287.515+717.657+295.25+722.336+300.516C727.016+305.782+732.957+308.414+740.159+308.414C747.361+308.414+753.271+305.802+757.889+300.577C762.508+295.352+764.817+287.515+764.817+277.066C764.817+266.739+762.569+259.035+758.073+253.954C753.576+248.872+747.605+246.332+740.159+246.332C732.712+246.332+726.711+248.903+722.153+254.046C717.596+259.189+715.317+266.944+715.317+277.312Z" opacity="1" fill="#484848"/>
<path d="M797.532+232.317L830.552+232.317C837.998+232.317+843.674+232.891+847.581+234.038C852.83+235.595+857.326+238.361+861.069+242.336C864.813+246.311+867.661+251.177+869.614+256.935C871.567+262.692+872.544+269.792+872.544+278.234C872.544+285.651+871.628+292.043+869.797+297.412C867.559+303.968+864.365+309.275+860.215+313.332C857.082+316.405+852.85+318.803+847.52+320.524C843.532+321.794+838.202+322.429+831.528+322.429L797.532+322.429L797.532+232.317ZM815.598+247.561L815.598+307.247L829.087+307.247C834.133+307.247+837.774+306.96+840.012+306.386C842.942+305.648+845.373+304.399+847.306+302.636C849.239+300.874+850.815+297.975+852.036+293.939C853.257+289.902+853.867+284.401+853.867+277.435C853.867+270.468+853.257+265.12+852.036+261.391C850.815+257.662+849.106+254.753+846.909+252.663C844.712+250.573+841.925+249.159+838.547+248.422C836.025+247.848+831.081+247.561+823.716+247.561L815.598+247.561Z" opacity="1" fill="#484848"/>
</g>
</g>
<g id="图层 2" vectornator:layerName="图层 2">
<path stroke="#000000" stroke-width="18" d="M266.729+261.505C266.729+250.46+275.683+241.505+286.729+241.505C297.775+241.505+306.729+250.46+306.729+261.505C306.729+272.551+297.775+281.505+286.729+281.505C275.683+281.505+266.729+272.551+266.729+261.505Z" fill="none" stroke-linecap="butt" opacity="0" stroke-linejoin="miter"/>
<g opacity="1">
<path d="M8.35714+6.08167L56.6429+6.08167C61.2584+6.08167+65+10.1111+65+15.0817L65+15.0817C65+20.0522+61.2584+24.0817+56.6429+24.0817L8.35714+24.0817C3.74162+24.0817+0+20.0522+0+15.0817L0+15.0817C0+10.1111+3.74162+6.08167+8.35714+6.08167Z" opacity="1" fill="#ff674d"/>
<path d="M8.35714+40.5098L56.6429+40.5098C61.2584+40.5098+65+44.5392+65+49.5098L65+49.5098C65+54.4804+61.2584+58.5098+56.6429+58.5098L8.35714+58.5098C3.74162+58.5098+0+54.4804+0+49.5098L0+49.5098C0+44.5392+3.74162+40.5098+8.35714+40.5098Z" opacity="1" fill="#ff674d"/>
<path d="M8.35714+76.9183L56.6429+76.9183C61.2584+76.9183+65+80.9478+65+85.9183L65+85.9183C65+90.8889+61.2584+94.9183+56.6429+94.9183L8.35714+94.9183C3.74162+94.9183+0+90.8889+0+85.9183L0+85.9183C0+80.9478+3.74162+76.9183+8.35714+76.9183Z" opacity="1" fill="#ff674d"/>
</g>
<path d="M93.3116+4.99999L93.3116+4.99999C98.2821+4.99999+102.312+9.02942+102.312+14L102.312+86C102.312+90.9706+98.2821+95+93.3116+95L93.3116+95C88.341+95+84.3116+90.9706+84.3116+86L84.3116+14C84.3116+9.02942+88.341+4.99999+93.3116+4.99999Z" opacity="1" fill="#ffffff"/>
<g opacity="1">
<path d="M127.464+4.99999L127.464+4.99999C132.435+4.99999+136.464+9.02942+136.464+14L136.464+86C136.464+90.9706+132.435+95+127.464+95L127.464+95C122.493+95+118.464+90.9706+118.464+86L118.464+14C118.464+9.02942+122.493+4.99999+127.464+4.99999Z" opacity="1" fill="#ffffff"/>
<path d="M200.686+4.99999L200.686+4.99999C205.657+4.99999+209.686+9.02942+209.686+14L209.686+86C209.686+90.9706+205.657+95+200.686+95L200.686+95C195.716+95+191.686+90.9706+191.686+86L191.686+14C191.686+9.02942+195.716+4.99999+200.686+4.99999Z" opacity="1" fill="#ffffff"/>
<path d="M205.587+6.453L205.587+6.453C209.755+9.16017+210.94+14.7341+208.233+18.9028L171.742+75.0937C169.035+79.2624+163.461+80.4472+159.293+77.74L159.293+77.74C155.124+75.0329+153.939+69.4589+156.646+65.2902L193.137+9.09929C195.844+4.93063+201.418+3.74585+205.587+6.453Z" opacity="1" fill="#ffffff"/>
<path d="M122.563+6.45302L122.563+6.45302C118.395+9.16019+117.21+14.7341+119.917+18.9028L156.408+75.0937C159.115+79.2624+164.689+80.4472+168.858+77.74L168.858+77.74C173.026+75.0329+174.211+69.4589+171.504+65.2902L135.013+9.09931C132.306+4.93063+126.732+3.74585+122.563+6.45302Z" opacity="1" fill="#ffffff"/>
</g>
<g opacity="1">
<path d="M314.737+4.99999L314.737+4.99999C319.708+4.99999+323.737+9.02942+323.737+14L323.737+86C323.737+90.9706+319.708+95+314.737+95L314.737+95C309.766+95+305.737+90.9706+305.737+86L305.737+14C305.737+9.02942+309.766+4.99999+314.737+4.99999Z" opacity="1" fill="#ffffff"/>
<path d="M314.094+77L362.38+77C366.995+77+370.737+81.0295+370.737+86L370.737+86C370.737+90.9706+366.995+95+362.38+95L314.094+95C309.479+95+305.737+90.9706+305.737+86L305.737+86C305.737+81.0295+309.479+77+314.094+77Z" opacity="1" fill="#ffffff"/>
</g>
<g opacity="1">
<path d="M392.231+77L440.517+77C445.132+77+448.874+81.0295+448.874+86L448.874+86C448.874+90.9706+445.132+95+440.517+95L392.231+95C387.615+95+383.874+90.9706+383.874+86L383.874+86C383.874+81.0295+387.615+77+392.231+77Z" opacity="1" fill="#ffffff"/>
<path d="M392.231+4.99999L440.517+4.99999C445.132+4.99999+448.874+9.02944+448.874+14L448.874+14C448.874+18.9706+445.132+23+440.517+23L392.231+23C387.615+23+383.874+18.9706+383.874+14L383.874+14C383.874+9.02944+387.615+4.99999+392.231+4.99999Z" opacity="1" fill="#ffffff"/>
<path d="M392.874+4.99999L392.874+4.99999C397.844+4.99999+401.874+9.02942+401.874+14L401.874+86C401.874+90.9706+397.844+95+392.874+95L392.874+95C387.903+95+383.874+90.9706+383.874+86L383.874+14C383.874+9.02942+387.903+4.99999+392.874+4.99999Z" opacity="1" fill="#ffffff"/>
<path d="M392.231+38.2558L440.517+38.2558C445.132+38.2558+448.874+42.2853+448.874+47.2558L448.874+47.2558C448.874+52.2264+445.132+56.2558+440.517+56.2558L392.231+56.2558C387.615+56.2558+383.874+52.2264+383.874+47.2558L383.874+47.2558C383.874+42.2853+387.615+38.2558+392.231+38.2558Z" opacity="1" fill="#ffffff"/>
</g>
<path d="M477.985+4.99999L526.27+4.99999C530.886+4.99999+534.627+9.02944+534.627+14L534.627+14C534.627+18.9706+530.886+23+526.27+23L477.985+23C473.369+23+469.627+18.9706+469.627+14L469.627+14C469.627+9.02944+473.369+4.99999+477.985+4.99999Z" opacity="1" fill="#ffffff"/>
<path d="M477.985+38.2558L526.27+38.2558C530.886+38.2558+534.627+42.2853+534.627+47.2558L534.627+47.2558C534.627+52.2264+530.886+56.2558+526.27+56.2558L477.985+56.2558C473.369+56.2558+469.627+52.2264+469.627+47.2558L469.627+47.2558C469.627+42.2853+473.369+38.2558+477.985+38.2558Z" opacity="1" fill="#ffffff"/>
<path d="M242.233+21.5324L242.233+86C242.233+90.9706+238.204+95+233.233+95L233.233+95C228.263+95+224.233+90.9706+224.233+86L224.233+14C224.233+9.02942+228.263+4.99999+233.233+4.99999L233.233+4.99999C238.204+4.99999+242.233+9.02942+242.233+14L242.233+21.5324" opacity="1" fill="#ffffff"/>
<path stroke="#ffffff" stroke-width="18" d="M261.342+14.0498C272.388+14.0498+281.342+23.0041+281.342+34.0498C281.342+45.0955+272.388+54.0498+261.342+54.0498" fill="none" stroke-linecap="round" opacity="1" stroke-linejoin="miter"/>
<path stroke="#ffffff" stroke-width="18" d="M233.233+14.0498L261.342+14.0498" fill="none" stroke-linecap="round" opacity="1" stroke-linejoin="round"/>
<path d="M552.611+50C552.611+25.1472+572.758+5+597.611+5C622.464+5+642.611+25.1472+642.611+50C642.611+74.8528+622.464+95+597.611+95C572.758+95+552.611+74.8528+552.611+50Z" opacity="1" fill="#fcc70e"/>
<path d="M642.611+50C642.611+25.1472+662.758+4.99999+687.611+4.99999C712.464+4.99999+732.611+25.1472+732.611+50C732.611+74.8528+712.464+95+687.611+95C662.758+95+642.611+74.8528+642.611+50Z" opacity="1" fill="#fcc70e"/>
<path d="M760.098+4.99999L760.098+4.99999C765.069+4.99999+769.098+9.02942+769.098+14L769.098+86C769.098+90.9706+765.069+95+760.098+95L760.098+95C755.128+95+751.098+90.9706+751.098+86L751.098+14C751.098+9.02942+755.128+4.99999+760.098+4.99999Z" opacity="1" fill="#ffffff"/>
<path stroke="#ffffff" stroke-width="18" d="M790.598+13.2773C811.309+13.2773+828.098+30.0666+828.098+50.7773C828.098+71.488+811.309+88.2773+790.598+88.2773" fill="none" stroke-linecap="round" opacity="1" stroke-linejoin="round"/>
<path stroke="#ffffff" stroke-width="18" d="M760.098+13.2773L788.598+13.2773" fill="none" stroke-linecap="round" opacity="1" stroke-linejoin="round"/>
<path d="M478.627+38.2558L478.627+38.2558C483.598+38.2558+487.627+42.6033+487.627+47.9662L487.627+85.208C487.627+90.5709+483.598+94.9183+478.627+94.9183L478.627+94.9183C473.657+94.9183+469.627+90.5709+469.627+85.208L469.627+47.9662C469.627+42.6033+473.657+38.2558+478.627+38.2558Z" opacity="1" fill="#ffffff"/>
</g>
</svg>
